<svg id="eDqxtug3fNP1" xmlns="http://www.w3.org/2000/svg" xmlns:xlink="http://www.w3.org/1999/xlink" viewBox="0 0 1497.81 378.55" shape-rendering="geometricPrecision" text-rendering="geometricPrecision"><g id="eDqxtug3fNP2"><g id="eDqxtug3fNP3"><g id="eDqxtug3fNP4"><g id="eDqxtug3fNP5"><g id="eDqxtug3fNP6" transform="matrix(1 0 0 1 0 0.000001)"><path id="eDqxtug3fNP7" d="M1083.24,254.09L1083.24,254.27ZM862.93,179.47C862.908229,176.607186,860.592814,174.291771,857.73,174.27L852,174.27C849.128119,174.27,846.8,176.598119,846.8,179.47C846.8,182.341881,849.128119,184.67,852,184.67L857.73,184.67C860.592814,184.648229,862.908229,182.332814,862.93,179.47Z" fill="rgb(217,50,8)" stroke="rgb(242,246,250)" stroke-width="1"/><path id="eDqxtug3fNP8" d="M1105.46,377.82C1108.40411,377.138003,1110.982494,375.370275,1112.68,372.87C1113.02,371.6,1113.48,370.37,1113.89,369.13C1114.166267,368.210057,1114.373509,367.270783,1114.51,366.32C1114.83,364.44,1115.09,362.54,1115.34,360.65C1115.78,357.35,1116.1,354.04,1116.34,350.72C1116.98,342.97,1117.34,335.19,1117.65,327.42L1118.23,314.25C1120.3,314.25,1122.36,314.09,1124.43,314.11C1127.301881,314.11,1129.63,311.781881,1129.63,308.91C1129.63,306.038119,1127.301881,303.71,1124.43,303.71C1122.54,303.71,1120.67,303.79,1118.78,303.84C1119.3,295.13,1120,286.43,1121.13,277.77C1122.68,266.56,1124.92,255.3,1129.23,244.77C1131.053882,240.469549,1133.3657,236.392831,1136.12,232.62C1137.991501,230.266588,1140.110315,228.120954,1142.44,226.22C1145.437039,224.042168,1148.662802,222.197916,1152.06,220.72C1157.559471,218.562442,1163.296664,217.068557,1169.15,216.27C1177.31979,215.360462,1185.548084,215.08964,1193.76,215.46C1202.56,215.72,1211.34,216.46,1220.14,216.46C1239.47,216.57,1258.7,214.12,1278.01,214.07C1279.53,217.07,1281.01,220.13,1282.51,223.19C1282.959655,224.020815,1283.659375,224.689048,1284.51,225.1C1283.371391,227.528799,1284.230904,230.425357,1286.51,231.84C1287.720165,232.541214,1289.160774,232.728493,1290.51,232.36C1291.807061,231.982001,1292.916191,231.133214,1293.62,229.98C1296.411137,225.830474,1298.900866,221.485981,1301.07,216.98C1301.477284,216.892045,1301.873185,216.757841,1302.25,216.58C1302.578648,216.648345,1302.915035,216.671892,1303.25,216.65Q1313.36,215.78,1323.5,215.45C1329.56,215.26,1335.63,215.34,1341.68,215.18C1353.08,214.88,1364.55,214.26,1375.9,215.64C1379.841334,216.149111,1383.712544,217.101818,1387.44,218.48C1389.813182,219.641184,1392.061522,221.041789,1394.15,222.66C1395.21,223.45,1396.28,224.22,1397.41,224.91C1398.663935,225.632717,1399.974989,226.251455,1401.33,226.76C1404.83,228.32,1408.07,230.38,1411.52,232.06C1413.317886,232.981238,1415.212941,233.699011,1417.17,234.2C1419.470902,234.750178,1421.869098,234.750178,1424.17,234.2C1426.416722,233.560987,1428.475353,232.387567,1430.17,230.78C1431.132931,229.870511,1432.00074,228.865325,1432.76,227.78C1433.671754,226.509253,1434.487355,225.172203,1435.2,223.78C1435.93,222.36,1436.57,220.88,1437.2,219.4C1437.350302,218.975634,1437.470598,218.541231,1437.56,218.1C1437.927959,216.37745,1438.191771,214.63429,1438.35,212.88C1439.441256,213.718059,1440.579802,214.492671,1441.76,215.2C1443.748831,216.3245,1445.837802,217.261859,1448,218C1452.164809,219.406238,1456.508115,220.214295,1460.9,220.4C1465.402842,220.631705,1469.916419,220.258376,1474.32,219.29C1478.499642,218.41033,1482.497545,216.820639,1486.14,214.59C1489.780826,212.361197,1492.816857,209.270216,1494.98,205.59C1496.88809,202.089412,1497.862709,198.156495,1497.81,194.17L1497.81,192.6C1497.25,183.6,1491.93,175.72,1485.06,170.2C1483.107326,168.618266,1481.041842,167.181117,1478.88,165.9C1476.667047,164.636841,1474.368049,163.530783,1472,162.59C1467.415132,160.71885,1462.567249,159.571821,1457.63,159.19C1455.506154,159.009974,1453.370085,159.030063,1451.25,159.25C1448.75163,159.473667,1446.286223,159.976811,1443.9,160.75C1442.050178,161.398435,1440.273729,162.239734,1438.6,163.26C1438.45,162.12,1438.36,160.98,1438.14,159.87C1437.653011,157.620223,1436.88709,155.440034,1435.86,153.38C1434.904248,151.440049,1433.567691,149.712387,1431.93,148.3C1429.966188,146.627993,1427.658167,145.409111,1425.17,144.73C1423.858301,144.400257,1422.519552,144.189404,1421.17,144.1C1419.9291,143.989993,1418.6809,143.989993,1417.44,144.1C1415.840675,144.199682,1414.25019,144.410187,1412.68,144.73C1411.049961,145.126906,1409.540275,145.912629,1408.28,147.02C1406.448075,148.707544,1405.121934,150.871613,1404.45,153.27C1403.9,154.86,1403.59,156.52,1403.04,158.11L1402.83,158.48L1402.44,158.68C1399.132249,159.910709,1395.697761,160.769331,1392.2,161.24C1388.83,161.65,1385.44,161.88,1382.05,162.1C1378.16,162.36,1374.26,162.57,1370.36,162.6C1362.59,162.68,1354.82,162.23,1347.07,161.88C1332.71,161.24,1318.13,160.94,1304.07,164.1C1303.974883,163.511179,1303.764168,162.947006,1303.45,162.44Q1298.84,155.44,1294.04,148.5C1293.329473,147.350735,1292.223433,146.500756,1290.93,146.11C1288.157811,145.350082,1285.293931,146.978914,1284.53,149.75C1284.538704,149.869807,1284.518111,149.989932,1284.47,150.1C1283.788117,150.7491,1283.264629,151.546308,1282.94,152.43C1281.81,155.51,1280.79,158.63,1279.8,161.75C1275.64,161.6,1271.47,161.54,1267.31,161.52C1263.15,161.5,1258.71,161.52,1254.41,161.66C1246.1,161.96,1237.82,162.66,1229.54,163.4C1212.62,164.82,1195.54,166.23,1178.54,164.09C1172.424078,163.221388,1166.412879,161.730315,1160.6,159.64C1160.204386,159.048413,1159.668436,158.563996,1159.04,158.23C1153.231686,155.321752,1147.696142,151.898015,1142.5,148C1138.175799,144.600689,1134.253747,140.718897,1130.81,136.43C1126.232467,130.241137,1122.411973,123.526737,1119.43,116.43C1115.037315,105.468595,1111.822578,94.071196,1109.84,82.43L1110.33,82.43C1113.11598,82.307856,1115.311801,80.013657,1115.311801,77.225C1115.311801,74.436343,1113.11598,72.142144,1110.33,72.02C1109.62,72.02,1108.91,72.09,1108.19,72.11L1108.19,71.83C1105.39,50.52,1104.99,29,1105.51,7.48C1105.531134,5.625331,1104.537812,3.907153,1102.92,3C1102.767724,2.723394,1102.59385,2.459241,1102.4,2.21C1101.408932,1.257353,1100.094466,0.714421,1098.72,0.69C1097.3,0.59,1095.88,0.54,1094.47,0.52L1094.28,0.52C1094.037061,0.373531,1093.782938,0.24647,1093.52,0.14C1092.169081,-0.219856,1090.730587,-0.029255,1089.52,0.67L1088.52,1.48C1087.881713,2.117703,1087.419976,2.910237,1087.18,3.78C1079.68,22,1079.99,42.02,1081.59,61.32C1081.95,65.68,1082.37,70.04,1082.79,74.41C1080.96,74.71,1079.14,74.98,1077.32,75.35C1074.54,75.92,1072.97,79.16,1073.69,81.75C1074.027122,83.057586,1074.854212,84.185436,1076,84.9C1077.216776,85.581501,1078.649423,85.767745,1080,85.42C1081.2,85.18,1082.41,85.01,1083.62,84.8C1084.62,96.69,1085.07,108.6,1083.62,120.49C1082.822717,125.976797,1081.537626,131.381545,1079.78,136.64L1079.63,137.07C1079.180035,136.902013,1078.70882,136.797673,1078.23,136.76C1072.658253,136.566395,1067.079813,136.78365,1061.54,137.41L1060.16,137.6C1059.28748,137.83339,1058.493334,138.296067,1057.86,138.94C1057.56941,139.275126,1057.320898,139.644535,1057.12,140.04C1056.431545,140.320996,1055.818497,140.759376,1055.33,141.32C992.98,145.32,930.46,144.78,868.02,144.41Q832.02,144.2,796.08,144.24C792.4,144.74,788.71,145.06,785.01,145.31C782.39,145.48,779.76,145.64,777.13,145.72C776.860103,146.699344,776.839477,147.730647,777.07,148.72C777.32,149.98,777.53,151.25,777.72,152.52C777.91,153.79,777.97,154.84,778.06,156.02C778.112627,157.092649,778.458512,158.130305,779.06,159.02C778.890494,159.475941,778.789398,159.954459,778.76,160.44C778.781772,163.308337,781.101663,165.628228,783.97,165.65C788.945071,165.449829,793.928106,165.610249,798.88,166.13C802.06214,166.580065,805.184556,167.381631,808.19,168.52C809.948115,169.319623,811.622918,170.291009,813.19,171.42C813.77,171.9,814.25,172.49,814.79,173.01L814,173.01C811.893339,173.115873,809.853118,173.782138,808.09,174.94C806.599497,175.986196,805.39038,177.384238,804.57,179.01C804.029908,180.155285,803.555799,181.33054,803.15,182.53C803.01,182.81,802.86,183.08,802.71,183.34L802.61,183.44L802.34,183.59C800.770922,184.057541,799.165244,184.392058,797.54,184.59C788,185.69,778.37,184.48,768.8,184.94C768.644546,184.962697,768.490847,184.99611,768.34,185.04C767.250752,184.896581,766.144112,185.1032,765.18,185.63C764.030735,186.340527,763.180756,187.446567,762.79,188.74L762.58,189.29C761.931824,190.757109,761.141377,192.157139,760.22,193.47C759.531692,194.291591,758.779336,195.057323,757.97,195.76C757.041222,196.41096,756.057504,196.979777,755.03,197.46C752.697549,198.286238,750.284053,198.862795,747.83,199.18C743.22,199.74,738.44,200,734.09,201.72C731.42434,202.714639,728.993363,204.250172,726.95,206.23C724.619999,208.698257,722.879739,211.662512,721.86,214.9C721.700133,215.39668,721.638984,215.91984,721.68,216.44C721.200086,217.226833,720.941008,218.128424,720.93,219.05C720.967692,221.906123,723.273877,224.212308,726.13,224.25C741.65,224.98,757.13,226.84,772.52,228.47C780.26,229.29,787.99,230.02,795.75,230.53C803.51,231.04,811.37,231.24,819.18,231.46C850.53,232.34,881.88,232.11,913.24,232.67C926.24,232.9,939.36,233.18,952.39,233.95C964.1,234.65,975.78,235.88,987.46,236.95C1010.2,239.03,1033.38,240.82,1056.05,237.04C1056.918228,237.969597,1058.094425,238.552365,1059.36,238.68C1060.277262,239.501428,1061.458923,239.966286,1062.69,239.99Q1071.93,239.99,1081.17,240.05Q1082.31,247.05,1083.28,254.05L1083.15,253.05L1083.3,254.18C1085.56,271.26,1087.1,288.42,1088.16,305.61C1085.59,305.76,1083.02,305.93,1080.45,306C1077.578119,306,1075.25,308.328119,1075.25,311.2C1075.25,314.071881,1077.578119,316.4,1080.45,316.4C1083.21,316.33,1085.98,316.15,1088.74,315.98Q1089.4,329.33,1089.68,342.69Q1089.83,350.28,1089.87,357.87L1089.87,369.46C1089.90328,370.521266,1089.866533,371.583571,1089.76,372.64L1089.68,373.29C1089.670537,374.212096,1089.91626,375.118848,1090.39,375.91C1091.818597,378.379416,1094.974981,379.228868,1097.45,377.81C1100.13,377.86,1102.81,377.84,1105.46,377.82ZM1214.66,206C1208.45,205.83,1202.24,205.39,1196.03,205.14C1194.84,205.14,1193.64,205.06,1192.45,205.02C1193.92,202.9,1195.33,200.74,1196.7,198.54C1199.12,194.67,1201.5,190.78,1204.25,187.13C1206.138546,184.733268,1208.269882,182.53826,1210.61,180.58C1211.893989,181.306025,1213.135966,182.103961,1214.33,182.97C1219.45,187.11,1223.64,192.2,1227.83,197.24C1230.11,199.99,1232.41,202.72,1234.83,205.32C1234.95,205.45,1235.09,205.56,1235.21,205.7C1228.39,206,1221.52,206.2,1214.66,206ZM1232.91,187.11C1229.181695,182.431724,1224.938276,178.188305,1220.26,174.46C1228.51,173.83,1236.75,173.05,1245.01,172.46C1250.44,172.09,1255.88,171.83,1261.33,171.81L1268.88,171.81C1268.21,172.38,1267.53,172.93,1266.88,173.52C1265.013396,175.303097,1263.26628,177.20722,1261.65,179.22C1258.24,183.37,1255.21,187.81,1251.96,192.07C1249.689695,194.961589,1247.180904,197.657703,1244.46,200.13C1240.383352,196.010458,1236.527943,191.677712,1232.91,187.15ZM1174.31,173.81C1183.078393,175.130418,1191.945707,175.679188,1200.81,175.45C1193.23,182.93,1188.38,193.22,1182.06,201.77C1178.751788,198.965432,1175.736376,195.832753,1173.06,192.42C1168.9,186.9,1165.33,180.96,1161.67,175.11C1160.54,173.31,1159.38,171.52,1158.21,169.75C1163.440504,171.60446,1168.8296,172.976839,1174.31,173.85ZM1276.25,203.71C1269.16,203.77,1262.09,204.09,1255.01,204.52C1256.35,203.09,1257.63,201.6,1258.85,200.07C1261.92,196.23,1264.73,192.18,1267.71,188.26C1270.428718,184.688382,1273.53428,181.428548,1276.97,178.54L1277.72,178.02C1277.5,186.59,1276.63,195.14,1276.25,203.71ZM1159.49,191.2C1162.030848,195.113297,1164.809401,198.867016,1167.81,202.44C1168.81,203.58,1169.87,204.59,1170.92,205.64C1166.636906,206.068014,1162.38736,206.782953,1158.2,207.78C1154.898828,208.590989,1151.665743,209.657539,1148.53,210.97C1147.01,198.11,1147.01,185.18,1147.25,172.25C1151.58,178.45,1155.37,185,1159.49,191.24ZM1458.87,169.66C1462.317939,170.207091,1465.692794,171.14306,1468.93,172.45C1472.047007,173.8317,1475.004413,175.548471,1477.75,177.57C1479.771921,179.188669,1481.624708,181.007951,1483.28,183C1484.388648,184.518234,1485.349683,186.138933,1486.15,187.84C1486.662265,189.187756,1487.047277,190.580495,1487.3,192C1487.419974,193.357354,1487.419974,194.722646,1487.3,196.08C1487.103699,197.149344,1486.815977,198.199866,1486.44,199.22C1485.987584,200.164626,1485.459179,201.07094,1484.86,201.93C1484.021332,202.918709,1483.097815,203.832188,1482.1,204.66C1480.588736,205.740218,1478.974187,206.668082,1477.28,207.43C1474.563821,208.480529,1471.740095,209.228381,1468.86,209.66C1465.251608,210.069971,1461.608392,210.069971,1458,209.66C1455.106946,209.228232,1452.26998,208.480426,1449.54,207.43C1447.520484,206.508203,1445.600501,205.382349,1443.81,204.07C1443.2,203.57,1442.6,203.07,1442.02,202.51C1441.201267,201.791118,1440.189362,201.328633,1439.11,201.18L1439.11,200.88C1439.28,196.34,1439.36,191.79,1439.4,187.26L1439.4,180.65C1439.4,179.1,1439.4,177.55,1439.34,176.01C1439.39,175.95,1439.46,175.91,1439.51,175.86C1440.378191,174.818464,1441.342439,173.860912,1442.39,173C1443.501224,172.229507,1444.67927,171.560162,1445.91,171C1447.594063,170.371147,1449.335728,169.908935,1451.11,169.62C1453.691993,169.366974,1456.293772,169.393797,1458.87,169.7ZM1421.15,154.44C1421.945754,154.577226,1422.728524,154.781282,1423.49,155.05C1423.946067,155.2706,1424.387031,155.521148,1424.81,155.8C1425.163788,156.140506,1425.497675,156.501103,1425.81,156.88C1426.238006,157.518134,1426.619012,158.186566,1426.95,158.88C1427.601102,160.692231,1428.070083,162.564807,1428.35,164.47C1428.76,167.96,1428.89,171.47,1428.96,174.99C1429.03,178.73,1429.02,182.48,1428.96,186.22C1428.96,191.11,1428.84,195.99,1428.66,200.88C1428.5,205.09,1428.31,209.32,1427.79,213.51C1427.668717,214.528309,1427.451075,215.532812,1427.14,216.51C1426.313864,218.42978,1425.309464,220.267831,1424.14,222C1423.680258,222.541456,1423.185887,223.052528,1422.66,223.53C1422.404735,223.699847,1422.141066,223.856713,1421.87,224C1421.64,224.07,1421.41,224.14,1421.17,224.19C1420.837142,224.215174,1420.502858,224.215174,1420.17,224.19C1419.258399,223.992715,1418.365192,223.718397,1417.5,223.37C1415.5,222.48,1413.65,221.37,1411.75,220.37C1409.46,219.1,1407.13,218,1404.75,216.97L1404.87,217.02C1401.87,215.64,1399.34,213.47,1396.59,211.62C1393.014914,209.33983,1389.06891,207.701866,1384.93,206.78C1380.739426,205.789756,1376.475453,205.140963,1372.18,204.84C1367.85,204.46,1363.49,204.38,1359.18,204.38C1350.87,204.38,1342.56,204.89,1334.24,204.89C1324.82,204.89,1315.41,205.33,1306.02,206.08C1306.15,204.64,1306.28,203.19,1306.35,201.75C1306.45,199.75,1306.49,197.82,1306.49,195.85C1306.49,194.03,1306.49,192.2,1306.4,190.37C1306.24,185.04,1305.79,179.72,1305.27,174.37C1308.13,173.68,1311.01,173.09,1313.93,172.67C1333.8,170.25,1353.78,173.31,1373.71,172.83C1378.39,172.72,1383.07,172.36,1387.71,171.98C1392.70541,171.668845,1397.655155,170.841095,1402.48,169.51C1402.34,171.51,1402.23,173.43,1402.2,175.4C1402.03,184.6,1402.89,193.78,1402.91,202.97C1403.032144,205.75598,1405.326343,207.951801,1408.115,207.951801C1410.903657,207.951801,1413.197856,205.75598,1413.32,202.97C1413.32,190.39,1411.74,177.78,1413.26,165.25C1413.796021,161.590697,1414.714379,157.997708,1416,154.53L1416.11,154.53C1417.784489,154.351401,1419.472297,154.334657,1421.15,154.48ZM1294.23,167.34L1294.23,167.72C1295.67,180.87,1296.83,194.2,1295.53,207.4C1294.602929,207.80843,1293.836613,208.511472,1293.35,209.4C1292.42,211.4,1291.35,213.4,1290.35,215.4C1289.54,213.73,1288.72,212.07,1287.9,210.4C1288.07673,209.895018,1288.171265,209.364943,1288.18,208.83C1288.168884,207.497872,1287.641998,206.221877,1286.71,205.27C1287.08,194.92,1288.27,184.6,1288.27,174.27C1288.27,172.76,1288.27,171.27,1288.18,169.76C1288.140437,169.247065,1288.029362,168.742179,1287.85,168.26C1288.550146,167.606159,1289.070169,166.783077,1289.36,165.87C1289.76,164.55,1290.24,163.25,1290.67,161.94C1291.81,163.8,1293.05,165.57,1294.23,167.38ZM1091.88,26.22C1092.548329,21.602791,1093.591781,17.047719,1095,12.6C1094.67,32.69,1095.27,52.8,1097.89,72.75C1096.25,72.87,1094.62,72.98,1092.99,73.14C1091.47,57.51,1089.92,41.86,1091.88,26.22ZM1064.08,229.64C1062.14,222.26,1060,214.93,1057.9,207.64C1056.069887,201.651617,1054.640066,195.548148,1053.62,189.37C1053.028137,184.723683,1053.001275,180.022778,1053.54,175.37C1054.535526,169.322657,1056.254528,163.416943,1058.66,157.78C1060.15,154.35,1061.78,151,1063.5,147.68C1067.7307,147.276776,1071.980822,147.113181,1076.23,147.19C1075.51,149.57,1074.81,151.97,1074.23,154.4C1071.743355,164.981295,1070.926823,175.886385,1071.81,186.72C1072.63,197.12,1074.81,207.36,1076.88,217.56C1077.72,221.56,1078.49,225.64,1079.27,229.69Q1071.66,229.63,1064.08,229.64ZM1010.57,228.38C996.86,227.63,983.19,226.17,969.57,224.94C963.1,224.36,956.63,223.84,950.14,223.48C942.56,223.06,934.96,222.85,927.37,222.64C911.69,222.21,896,222.06,880.31,221.94C854.61,221.74,828.89,221.62,803.21,220.58C779.94,219.64,756.89,215.96,733.68,214.37C734.131517,213.836784,734.622934,213.338681,735.15,212.88C735.820935,212.419712,736.526358,212.011836,737.26,211.66C739.351637,210.919875,741.51779,210.410192,743.72,210.14C746.28,209.81,748.85,209.54,751.4,209.14C754.211925,208.716638,756.957762,207.933554,759.57,206.81C762.275416,205.638225,764.719809,203.938369,766.76,201.81C768.55695,199.903336,770.038836,197.722702,771.15,195.35C775.79,195.23,780.42,195.35,785.05,195.45C790.440433,195.630738,795.836116,195.319449,801.17,194.52C804.54,193.97,808.26,192.96,810.51,190.18C811.289152,189.276203,811.935641,188.266065,812.43,187.18C812.83,186.18,813.2,185.24,813.58,184.26C813.687373,184.021791,813.810998,183.791248,813.95,183.57Q814.29,183.47,814.64,183.39C815.861427,183.323188,817.086391,183.366698,818.3,183.52C818.637858,183.545742,818.972615,183.602651,819.3,183.69C820.53508,183.971432,821.82849,183.837873,822.98,183.31L823.44,183.48C824.770082,183.848084,826.191931,183.672337,827.392357,182.99147C828.592783,182.310603,829.473316,181.180468,829.84,179.85L830.03,178.47C830.029677,177.544698,829.781028,176.63644,829.31,175.84C827.482784,171.616481,824.7878,167.824425,821.4,164.71C818.030392,161.748935,814.118031,159.470121,809.88,158C805.708926,156.628172,801.381405,155.788202,797,155.5C794.127194,155.248422,791.243545,155.14162,788.36,155.18L788.36,154.65Q833.36,154.65,878.36,154.88C909.62,155.06,940.89,155.21,972.15,154.77C998.09,154.4,1024.02,153.57,1049.91,152.03C1047.739489,156.818748,1045.979826,161.783274,1044.65,166.87C1043.721013,170.598313,1043.138537,174.404494,1042.91,178.24C1015.75,178.74,988.58,177.68,961.45,176.51C947.45,175.89,933.36,175.26,919.3,174.81C905.54,174.37,891.79,174.2,878.01,174.2C875.22402,174.322144,873.028199,176.616343,873.028199,179.405C873.028199,182.193657,875.22402,184.487856,878.01,184.61C891.47,184.61,904.92,184.77,918.37,185.18C932.37,185.62,946.47,186.26,960.52,186.87C988.04,188.07,1015.6,189.16,1043.16,188.65C1044.012649,195.377318,1045.417388,202.023072,1047.36,208.52C1049.1,214.75,1050.89,220.95,1052.63,227.18C1051.69,227.33,1050.76,227.49,1049.82,227.63C1036.82,229.25,1023.67,229.09,1010.59,228.38ZM1097,285.13Q1095,262.71,1091.65,240.43C1089.65,227.56,1086.65,214.89,1084.31,202.1C1083.74,199.01,1083.23,195.91,1082.8,192.8C1081.600364,183.911797,1081.519736,174.908261,1082.56,166C1083.362241,160.586627,1084.558756,155.239071,1086.14,150C1087.06,146.91,1088.14,143.88,1089.26,140.86C1090.324464,137.911816,1091.225827,134.907271,1091.96,131.86C1094.83,120.09,1095.26,107.81,1094.74,95.75C1094.57,91.67,1094.26,87.59,1093.91,83.51C1095.74,83.34,1097.56,83.12,1099.39,82.99C1100.783089,91.326882,1102.717175,99.564284,1105.18,107.65C1108.308116,118.152175,1112.881947,128.168159,1118.77,137.41C1122.73003,143.498185,1127.538486,148.990196,1133.05,153.72C1134.47,154.93,1135.94,156.08,1137.44,157.19C1137.271978,157.65376,1137.167693,158.138183,1137.13,158.63C1136.97,167.83,1136.69,177.02,1136.74,186.21C1136.74939,195.820739,1137.380709,205.420799,1138.63,214.95C1138.697751,215.345008,1138.843962,215.722437,1139.06,216.06C1135.987239,218.040964,1133.169469,220.391904,1130.67,223.06C1124.85,229.38,1120.97,237.12,1118.01,245.12C1114.961177,253.805951,1112.800144,262.778426,1111.56,271.9C1109.92,282.65,1109.01,293.47,1108.37,304.31C1105.07,304.53,1101.76,304.74,1098.46,305C1098.03,298.37,1097.57,291.75,1097,285.13ZM1100.21,364.13C1100.21,360.29,1100.21,356.43,1100.15,352.59Q1100.04,341.37,1099.67,330.17C1099.5,325.17,1099.23,320.27,1098.98,315.32C1101.92,315.09,1104.87,314.91,1107.81,314.71C1107.54,320.46,1107.3,326.21,1107.04,331.96C1106.62,341.3,1106.17,350.66,1104.98,359.96C1104.82,361.16,1104.64,362.36,1104.43,363.55C1104.276723,364.496837,1104.073101,365.434833,1103.82,366.36C1103.72,366.71,1103.59,367.06,1103.47,367.42L1100.2,367.42Z" fill="rgb(217,50,8)" stroke="rgb(242,246,250)" stroke-width="1"/><path id="eDqxtug3fNP9" d="M1117.3,190.6C1119.405097,190.602468,1121.304008,189.3355,1122.109928,187.390781C1122.915848,185.446062,1122.469763,183.207294,1120.98,181.72C1119.995153,180.757872,1118.676749,180.213313,1117.3,180.2C1110.792054,179.799526,1104.261039,180.000378,1097.79,180.8L1096.41,180.99C1095.539108,181.221896,1094.745402,181.680865,1094.11,182.32C1092.080731,184.353707,1092.080731,187.646293,1094.11,189.68C1095.069133,190.680457,1096.404422,191.23199,1097.79,191.2C1104.261039,190.400378,1110.792054,190.199526,1117.3,190.6ZM80.64,147.64C74.19,148.42,67.77,149.44,61.41,150.76C55.000533,152.100107,48.67879,153.829987,42.48,155.94C29.36,160.34,16.77,166.14,3.82,171.01C2.527727,171.397417,1.421649,172.243869,0.71,173.39C-0.736997,175.872895,0.099691,179.058574,2.58,180.51C3.154413,180.834116,3.780145,181.05735,4.43,181.17C4.811787,182.316826,5.587735,183.291191,6.62,183.92C23.47,193.79,40.83,203.3,59.95,207.92C64.686686,208.987196,69.476787,209.80168,74.3,210.36C79.6,211.07,84.95,211.57,90.3,211.98C100.69,212.78,111.11,213.04,121.52,213.11C142.42,213.25,163.32,212.41,184.21,212.51C194.85,212.51,205.49,212.97,216.11,213.37Q232.48,214,248.85,214.78C270.67,215.78,292.49,216.95,314.32,217.92Q330.69,218.66,347.05,219.21C357.95,219.57,368.86,219.81,379.75,220.09C423.32,221.19,466.89,222.61,510.47,223.41C563.13,224.41,615.82,224.41,668.47,221.95C668.767559,221.90352,669.061581,221.836697,669.35,221.75C670.480638,221.927361,671.637385,221.693173,672.61,221.09C673.95,220.16,675.49,219.58,676.82,218.64C678.32892,217.467571,679.697924,216.12541,680.9,214.64C683.05,212.26,685.05,209.75,687.03,207.22C690.18,203.22,693.29,199.16,697.26,195.91C699.421362,194.339762,701.74057,192.99918,704.18,191.91C710.7107,189.473791,717.508746,187.825474,724.43,187C731.75,186.06,739.17,185.53,746.22,183.2C750.339338,181.802836,754.290337,179.951434,758,177.68C759.11,177.01,760.18,176.29,761.26,175.56L762.61,174.61C763.625254,174.018901,764.496294,173.209346,765.16,172.24C765.657012,171.320083,765.901957,170.285107,765.87,169.24C765.881849,168.74563,765.858456,168.251045,765.8,167.76C765.71004,166.526872,765.539678,165.300932,765.29,164.09C764.898025,162.324014,764.254811,160.623369,763.38,159.04C762.520582,157.437636,761.398327,155.990874,760.06,154.76C757.278838,152.302127,753.949216,150.546445,750.35,149.64C746.831177,148.772604,743.2388,148.236928,739.62,148.04C736.01,147.71,732.39,147.54,728.79,147.18C727.639952,147.152086,726.518269,147.538995,725.63,148.27C680.25,143.77,634.72,149.52,589.34,151.4C577.55,151.89,565.74,151.96,553.93,151.9C541.93,151.85,530,151.62,518.03,151.31C494.11,150.7,470.2,149.68,446.29,148.71C422.38,147.74,398.43,146.79,374.49,146.32C350.55,145.85,326.49,145.86,302.49,146.03C255.35,146.35,208.19,147.38,161.06,146.12C134.27,145.36,107.34,144.44,80.64,147.64ZM749.91,160.46C750.788552,160.869147,751.63147,161.350815,752.43,161.9C752.896149,162.306154,753.333846,162.743851,753.74,163.21C754.071082,163.699188,754.368438,164.210372,754.63,164.74C754.906024,165.519324,755.123298,166.318225,755.28,167.13C752.377655,169.096644,749.313274,170.812831,746.12,172.26C741.77335,173.928233,737.245585,175.079473,732.63,175.69C726.83,176.44,721.01,177.01,715.26,178.1C708.26,179.43,701.26,181.39,695.1,184.92C690.351205,187.789304,686.179759,191.519865,682.8,195.92C680.96,198.18,679.2,200.51,677.36,202.78C676.36,203.98,675.43,205.15,674.42,206.31C673.41,207.47,672.18,208.9,670.94,210.07C670.07,210.6,669.16,211.07,668.28,211.57C581.28,215.65,494.18,212.83,407.17,210.44C385.38,209.83,363.59,209.44,341.8,208.65C320.01,207.86,298.15,206.81,276.33,205.73C254.51,204.65,232.69,203.59,210.86,202.79C200.32,202.41,189.78,202.11,179.24,202.12C168.7,202.13,158.36,202.34,147.93,202.51C123.26,202.92,98.5,203.1,73.99,199.93C68.65829,199.214347,63.380004,198.145327,58.19,196.73C53.223649,195.310213,48.348023,193.590386,43.59,191.58C38.03,189.19,32.59,186.5,27.29,183.65C45.52,183.42,63.75,182.82,81.97,182.04C84.841881,182.04,87.17,179.711881,87.17,176.84C87.17,173.968119,84.841881,171.64,81.97,171.64C63.38,172.43,44.77,173.04,26.16,173.25C31.64,171.03,37.16,168.84,42.71,166.85C48.514428,164.777318,54.430353,163.031252,60.43,161.62C66.48,160.19,72.62,159.14,78.77,158.28C100.41,155.52,122.26,155.55,144.03,156.03C154.87,156.27,165.7,156.64,176.54,156.83C188.3,157.05,200.08,157.06,211.85,157.05C259.85,157.05,307.85,155.94,355.79,156.4C403.73,156.86,451.53,159.51,499.41,161.11C523.3,161.91,547.22,162.47,571.12,162.24C594.64,162.02,618.12,160.14,641.55,158.68C671.05,156.85,700.71,155.68,730.13,159.07C731.325986,159.109222,732.491898,158.690781,733.39,157.9C736.48,158.12,739.56,158.33,742.63,158.7C745.111542,159.030441,747.551566,159.620336,749.91,160.46Z" fill="rgb(217,50,8)" stroke="rgb(242,246,250)" stroke-width="1"/><path id="eDqxtug3fNP10" d="M207.08,181.32Q200.86,181.44,194.64,181.61C192.44,181.67,190.24,181.74,188.04,181.78L182,181.78C179.128119,181.78,176.8,184.108119,176.8,186.98C176.8,189.851881,179.128119,192.18,182,192.18C185.59,192.18,189.16,192.18,192.75,192.05C196.89,191.94,201.04,191.85,205.18,191.75Q217.18,191.48,229.18,191.34Q253.18,191.04,277.18,191.21Q325.18,191.52,373.18,193.7C389.18,194.43,405.18,195.39,421.18,196.14C437.18,196.89,453.18,197.5,469.18,197.98Q517.01,199.41,564.89,199.24Q616.37,199.09,667.82,197.24C670.60598,197.117856,672.801801,194.823657,672.801801,192.035C672.801801,189.246343,670.60598,186.952144,667.82,186.83C603.87,189.06,539.82,189.49,475.89,187.75Q451.89,187.09,427.89,186.02C411.89,185.32,395.89,184.37,379.89,183.59Q331.97,181.28,283.97,180.84Q258.53,180.58,233.08,180.84Q220,181,207.08,181.32ZM164.66,189.86C165.633385,188.886677,166.180232,187.56653,166.180232,186.19C166.180232,184.81347,165.633385,183.493323,164.66,182.52C163.701448,181.530827,162.377287,180.980902,161,181C149.24,182.06,137.43,181.85,125.63,181.81C122.758119,181.81,120.43,184.138119,120.43,187.01C120.43,189.881881,122.758119,192.21,125.63,192.21C137.43,192.21,149.24,192.46,161,191.4C162.368789,191.35843,163.67326,190.809555,164.66,189.86Z" fill="rgb(217,50,8)" stroke="rgb(242,246,250)" stroke-width="1"/></g></g></g></g></g></svg>