<svg xmlns="http://www.w3.org/2000/svg" viewBox="0 0 1497.81 378.55" shape-rendering="geometricPrecision" text-rendering="geometricPrecision">
  <g fill="#D93208" stroke="#F2F6FA">
    <path d="M1083.24 254.090001v.18Zm-220.31-74.62c-.021771-2.862814-2.337186-5.178229-5.2-5.2H852c-2.871881 0-5.2 2.328119-5.2 5.2s2.328119 5.2 5.2 5.2h5.73c2.862814-.021771 5.178229-2.337186 5.2-5.2Z"/>
    <path d="M1105.46 377.820001c2.94411-.681997 5.522494-2.449725 7.22-4.95.34-1.27.8-2.5 1.21-3.74a19.31011825 19.31011825 0 0 0 .62-2.81c.32-1.88.58-3.78.83-5.67.44-3.3.76-6.61 1-9.93.64-7.75 1-15.53 1.31-23.3l.58-13.17c2.07 0 4.13-.16 6.2-.14 2.871881 0 5.2-2.328119 5.2-5.2s-2.328119-5.2-5.2-5.2c-1.89 0-3.76.08-5.65.13.52-8.71 1.22-17.41 2.35-26.07 1.55-11.21 3.79-22.47 8.1-33 1.823882-4.300451 4.1357-8.377169 6.89-12.15 1.871501-2.353412 3.990315-4.499046 6.32-6.4 2.997039-2.177832 6.222802-4.022084 9.62-5.5 5.499471-2.157558 11.236664-3.651443 17.09-4.45 8.16979-.909538 16.398084-1.18036 24.61-.81 8.8.26 17.58 1 26.38 1 19.33.11 38.56-2.34 57.87-2.39 1.52 3 3 6.06 4.5 9.12.449655.830815 1.149375 1.499048 2 1.91-1.138609 2.428799-.279096 5.325357 2 6.74 1.210165.701214 2.650774.888493 4 .52 1.297061-.377999 2.406191-1.226786 3.11-2.38 2.791137-4.149526 5.280866-8.494019 7.45-13 .407284-.087955.803185-.222159 1.18-.4.328648.068345.665035.091892 1 .07q10.11-.87 20.25-1.2c6.06-.19 12.13-.11 18.18-.27 11.4-.3 22.87-.92 34.22.46 3.941334.509111 7.812544 1.461818 11.54 2.84 2.373182 1.161184 4.621522 2.561789 6.71 4.18 1.06.79 2.13 1.56 3.26 2.25 1.253935.722717 2.564989 1.341455 3.92 1.85 3.5 1.56 6.74 3.62 10.19 5.3 1.797886.921238 3.692941 1.639011 5.65 2.14 2.300902.550178 4.699098.550178 7 0 2.246722-.639013 4.305353-1.812433 6-3.42.962931-.909489 1.83074-1.914675 2.59-3 .911754-1.270747 1.727355-2.607797 2.44-4 .73-1.42 1.37-2.9 2-4.38.150302-.424366.270598-.858769.36-1.3.367959-1.72255.631771-3.46571.79-5.22a35.89020371 35.89020371 0 0 0 3.41 2.32c1.988831 1.1245 4.077802 2.061859 6.24 2.8 4.164809 1.406238 8.508115 2.214295 12.9 2.4 4.502842.231705 9.016419-.141624 13.42-1.11 4.179642-.87967 8.177545-2.469361 11.82-4.7 3.640826-2.228803 6.676857-5.319784 8.84-9 1.90809-3.500588 2.882709-7.433505 2.83-11.42v-1.57c-.56-9-5.88-16.88-12.75-22.4a51.66005828 51.66005828 0 0 0-6.18-4.3c-2.212953-1.263159-4.511951-2.369217-6.88-3.31-4.584868-1.87115-9.432751-3.018179-14.37-3.4-2.123846-.180026-4.259915-.159937-6.38.06-2.49837.223667-4.963777.726811-7.35 1.5-1.849822.648435-3.626271 1.489734-5.3 2.51-.15-1.14-.24-2.28-.46-3.39-.486989-2.249777-1.25291-4.429966-2.28-6.49-.955752-1.939951-2.292309-3.667613-3.93-5.08-1.963812-1.672007-4.271833-2.890889-6.76-3.57-1.311699-.329743-2.650448-.540596-4-.63a21.12006276 21.12006276 0 0 0-3.73 0c-1.599325.099682-3.18981.310187-4.76.63-1.630039.396906-3.139725 1.182629-4.4 2.29-1.831925 1.687544-3.158066 3.851613-3.83 6.25-.55 1.59-.86 3.25-1.41 4.84l-.21.37-.39.2c-3.307751 1.230709-6.742239 2.089331-10.24 2.56-3.37.41-6.76.64-10.15.86-3.89.26-7.79.47-11.69.5-7.77.08-15.54-.37-23.29-.72-14.36-.64-28.94-.94-43 2.22-.095117-.588821-.305832-1.152994-.62-1.66q-4.61-7-9.41-13.94c-.710527-1.149265-1.816567-1.999244-3.11-2.39-2.772189-.759918-5.636069.868914-6.4 3.64.008704.119807-.011889.239932-.06.35-.681883.6491-1.205371 1.446308-1.53 2.33-1.13 3.08-2.15 6.2-3.14 9.32-4.16-.15-8.33-.21-12.49-.23-4.16-.02-8.6 0-12.9.14-8.31.3-16.59 1-24.87 1.74-16.92 1.42-34 2.83-51 .69-6.115922-.868612-12.127121-2.359685-17.94-4.45-.395614-.591587-.931564-1.076004-1.56-1.41-5.808314-2.908248-11.343858-6.331985-16.54-10.23-4.324201-3.399311-8.246253-7.281103-11.69-11.57-4.577533-6.188863-8.398027-12.903263-11.38-20-4.392685-10.961405-7.607422-22.358804-9.59-34h.49c2.78598-.122144 4.981801-2.416343 4.981801-5.205s-2.195821-5.082856-4.981801-5.205c-.71 0-1.42.07-2.14.09v-.28c-2.8-21.31-3.2-42.83-2.68-64.35.021134-1.854669-.972188-3.572847-2.59-4.48-.152276-.276606-.32615-.540759-.52-.79-.991068-.952647-2.305534-1.495579-3.68-1.52-1.42-.1-2.84-.15-4.25-.17h-.19c-.242939-.146469-.497062-.27353-.76-.38-1.350919-.359856-2.789413-.169255-4 .53l-1 .81c-.638287.637703-1.100024 1.430237-1.34 2.3-7.5 18.22-7.19 38.24-5.59 57.54.36 4.36.78 8.72 1.2 13.09-1.83.3-3.65.57-5.47.94-2.78.57-4.35 3.81-3.63 6.4.337122 1.307586 1.164212 2.435436 2.31 3.15 1.216776.681501 2.649423.867745 4 .52 1.2-.24 2.41-.41 3.62-.62 1 11.89 1.45 23.8 0 35.69-.797283 5.486797-2.082374 10.891545-3.84 16.15l-.15.43c-.449965-.167987-.92118-.272327-1.4-.31-5.571747-.193605-11.150187.02365-16.69.65l-1.38.19c-.87252.23339-1.666666.696067-2.3 1.34-.29059.335126-.539102.704535-.74 1.1-.688455.280996-1.301503.719376-1.79 1.28-62.35 4-124.87 3.46-187.31 3.09q-36-.21-71.94-.17c-3.68.5-7.37.82-11.07 1.07-2.62.17-5.25.33-7.88.41-.269897.979344-.290523 2.010647-.06 3 .25 1.26.46 2.53.65 3.8s.25 2.32.34 3.5c.052627 1.072649.398512 2.110305 1 3-.169506.455941-.270602.934459-.3 1.42.021772 2.868337 2.341663 5.188228 5.21 5.21 4.975071-.200171 9.958106-.039751 14.91.48 3.18214.450065 6.304556 1.251631 9.31 2.39 1.758115.799623 3.432918 1.771009 5 2.9.58.48 1.06 1.07 1.6 1.59H814c-2.106661.105873-4.146882.772138-5.91 1.93-1.490503 1.046196-2.69962 2.444238-3.52 4.07-.540092 1.145285-1.014201 2.32054-1.42 3.52-.14.28-.29.55-.44.81l-.1.1-.27.15c-1.569078.467541-3.174756.802058-4.8 1-9.54 1.1-19.17-.11-28.74.35-.155454.022697-.309153.05611-.46.1-1.089248-.143419-2.195888.0632-3.16.59-1.149265.710527-1.999244 1.816567-2.39 3.11l-.21.55c-.648176 1.467109-1.438623 2.867139-2.36 4.18-.688308.821591-1.440664 1.587323-2.25 2.29-.928778.65096-1.912496 1.219777-2.94 1.7-2.332451.826238-4.745947 1.402795-7.2 1.72-4.61.56-9.39.82-13.74 2.54-2.66566.994639-5.096637 2.530172-7.14 4.51-2.330001 2.468257-4.070261 5.432512-5.09 8.67-.159867.49668-.221016 1.01984-.18 1.54-.479914.786833-.738992 1.688424-.75 2.61.037692 2.856123 2.343877 5.162308 5.2 5.2 15.52.73 31 2.59 46.39 4.22 7.74.82 15.47 1.55 23.23 2.06s15.62.71 23.43.93c31.35.88 62.7.65 94.06 1.21 13 .23 26.12.51 39.15 1.28 11.71.7 23.39 1.93 35.07 3 22.74 2.08 45.92 3.87 68.59.09.868228.929597 2.044425 1.512365 3.31 1.64.917262.821428 2.098923 1.286286 3.33 1.31q9.24 0 18.48.06 1.14 7 2.11 14l-.13-1 .15 1.13c2.26 17.08 3.8 34.24 4.86 51.43-2.57.15-5.14.32-7.71.39-2.871881 0-5.2 2.328119-5.2 5.2s2.328119 5.2 5.2 5.2c2.76-.07 5.53-.25 8.29-.42q.66 13.35.94 26.71.15 7.59.19 15.18v11.59c.03328 1.061266-.003467 2.123571-.11 3.18l-.08.65c-.009463.922096.23626 1.828848.71 2.62 1.428597 2.469416 4.584981 3.318868 7.06 1.9 2.68.05 5.36.03 8.01.01Zm109.2-171.82c-6.21-.17-12.42-.61-18.63-.86-1.19 0-2.39-.08-3.58-.12 1.47-2.12 2.88-4.28 4.25-6.48 2.42-3.87 4.8-7.76 7.55-11.41 1.888546-2.396732 4.019882-4.59174 6.36-6.55 1.283989.726025 2.525966 1.523961 3.72 2.39 5.12 4.14 9.31 9.23 13.5 14.27 2.28 2.75 4.58 5.48 7 8.08.12.13.26.24.38.38-6.82.3-13.69.5-20.55.3Zm18.25-18.89c-3.728305-4.678276-7.971724-8.921695-12.65-12.65 8.25-.63 16.49-1.41 24.75-2 5.43-.37 10.87-.63 16.32-.65h7.55c-.67.57-1.35 1.12-2 1.71-1.866604 1.783097-3.61372 3.68722-5.23 5.7-3.41 4.15-6.44 8.59-9.69 12.85-2.270305 2.891589-4.779096 5.587703-7.5 8.06-4.076648-4.119542-7.932057-8.452288-11.55-12.98Zm-58.6-13.3c8.768393 1.320418 17.635707 1.869188 26.5 1.64-7.58 7.48-12.43 17.77-18.75 26.32-3.308212-2.804568-6.323624-5.937247-9-9.35-4.16-5.52-7.73-11.46-11.39-17.31-1.13-1.8-2.29-3.59-3.46-5.36 5.230504 1.85446 10.6196 3.226839 16.1 4.1Zm101.94 29.9c-7.09.06-14.16.38-21.24.81 1.34-1.43 2.62-2.92 3.84-4.45 3.07-3.84 5.88-7.89 8.86-11.81 2.718718-3.571618 5.82428-6.831452 9.26-9.72l.75-.52c-.22 8.57-1.09 17.12-1.47 25.69Zm-116.76-12.51c2.540848 3.913297 5.319401 7.667016 8.32 11.24 1 1.14 2.06 2.15 3.11 3.2-4.283094.428014-8.53264 1.142953-12.72 2.14-3.301172.810989-6.534257 1.877539-9.67 3.19-1.52-12.86-1.52-25.79-1.28-38.72 4.33 6.2 8.12 12.75 12.24 18.99Zm299.38-21.54c3.447939.547091 6.822794 1.48306 10.06 2.79 3.117007 1.3817 6.074413 3.098471 8.82 5.12 2.021921 1.618669 3.874708 3.437951 5.53 5.43 1.108648 1.518234 2.069683 3.138933 2.87 4.84a23.10991297 23.10991297 0 0 1 1.15 4.16 23.17000067 23.17000067 0 0 1 0 4.08c-.196301 1.069344-.484023 2.119866-.86 3.14-.452416.944626-.980821 1.85094-1.58 2.71-.838668.988709-1.762185 1.902188-2.76 2.73-1.511264 1.080218-3.125813 2.008082-4.82 2.77-2.716179 1.050529-5.539905 1.798381-8.42 2.23-3.608392.409971-7.251608.409971-10.86 0-2.893054-.431768-5.73002-1.179574-8.46-2.23-2.019516-.921797-3.939499-2.047651-5.73-3.36-.61-.5-1.21-1-1.79-1.56-.818733-.718882-1.830638-1.181367-2.91-1.33v-.3c.17-4.54.25-9.09.29-13.62v-6.61c0-1.55 0-3.1-.06-4.64.05-.06.12-.1.17-.15.868191-1.041536 1.832439-1.999088 2.88-2.86 1.111224-.770493 2.28927-1.439838 3.52-2 1.684063-.628853 3.425728-1.091065 5.2-1.38 2.581993-.253026 5.183772-.226203 7.76.08Zm-37.72-15.22c.795754.137226 1.578524.341282 2.34.61.456067.2206.897031.471148 1.32.75.353788.340506.687675.701103 1 1.08.428006.638134.809012 1.306566 1.14 2 .651102 1.812231 1.120083 3.684807 1.4 5.59.41 3.49.54 7 .61 10.52.07 3.74.06 7.49 0 11.23 0 4.89-.12 9.77-.3 14.66-.16 4.21-.35 8.44-.87 12.63-.121283 1.018309-.338925 2.022812-.65 3-.826136 1.91978-1.830536 3.757831-3 5.49-.459742.541456-.954113 1.052528-1.48 1.53-.255265.169847-.518934.326713-.79.47-.23.07-.46.14-.7.19a6.63002763 6.63002763 0 0 1-1 0c-.911601-.197285-1.804808-.471603-2.67-.82-2-.89-3.85-2-5.75-3-2.29-1.27-4.62-2.37-7-3.4l.12.05c-3-1.38-5.53-3.55-8.28-5.4-3.575086-2.28017-7.52109-3.918134-11.66-4.84-4.190574-.990244-8.454547-1.639037-12.75-1.94-4.33-.38-8.69-.46-13-.46-8.31 0-16.62.51-24.94.51-9.42 0-18.83.44-28.22 1.19.13-1.44.26-2.89.33-4.33.1-2 .14-3.93.14-5.9 0-1.82 0-3.65-.09-5.48-.16-5.33-.61-10.65-1.13-16 2.86-.69 5.74-1.28 8.66-1.7 19.87-2.42 39.85.64 59.78.16 4.68-.11 9.36-.47 14-.85 4.99541-.311155 9.945155-1.138905 14.77-2.47-.14 2-.25 3.92-.28 5.89-.17 9.2.69 18.38.71 27.57.122144 2.78598 2.416343 4.981801 5.205 4.981801s5.082856-2.195821 5.205-4.981801c0-12.58-1.58-25.19-.06-37.72.536021-3.659303 1.454379-7.252292 2.74-10.72h.11c1.674489-.178599 3.362297-.195343 5.04-.05Zm-126.92 12.9v.38c1.44 13.15 2.6 26.48 1.3 39.68-.927071.40843-1.693387 1.111472-2.18 2-.93 2-2 4-3 6-.81-1.67-1.63-3.33-2.45-5 .17673-.504982.271265-1.035057.28-1.57-.011116-1.332128-.538002-2.608123-1.47-3.56.37-10.35 1.56-20.67 1.56-31 0-1.51 0-3-.09-4.51-.039563-.512935-.150638-1.017821-.33-1.5.700146-.653841 1.220169-1.476923 1.51-2.39.4-1.32.88-2.62 1.31-3.93 1.14 1.86 2.38 3.63 3.56 5.44Zm-202.35-141.12c.668329-4.617209 1.711781-9.172281 3.12-13.62-.33 20.09.27 40.2 2.89 60.15-1.64.12-3.27.23-4.9.39-1.52-15.63-3.07-31.28-1.11-46.92Zm-27.8 203.42c-1.94-7.38-4.08-14.71-6.18-22-1.830113-5.988383-3.259934-12.091852-4.28-18.27-.591863-4.646317-.618725-9.347222-.08-14 .995526-6.047343 2.714528-11.953057 5.12-17.59 1.49-3.43 3.12-6.78 4.84-10.1 4.2307-.403224 8.480822-.566819 12.73-.49-.72 2.38-1.42 4.78-2 7.21-2.486645 10.581295-3.303177 21.486385-2.42 32.32.82 10.4 3 20.64 5.07 30.84.84 4 1.61 8.08 2.39 12.13q-7.61-.06-15.19-.05Zm-53.51-1.26c-13.71-.75-27.38-2.21-41-3.44-6.47-.58-12.94-1.1-19.43-1.46-7.58-.42-15.18-.63-22.77-.84-15.68-.43-31.37-.58-47.06-.7-25.7-.2-51.42-.32-77.1-1.36-23.27-.94-46.32-4.62-69.53-6.21a13.78003377 13.78003377 0 0 1 1.47-1.49c.670935-.460288 1.376358-.868164 2.11-1.22 2.091637-.740125 4.25779-1.249808 6.46-1.52 2.56-.33 5.13-.6 7.68-1 2.811925-.423362 5.557762-1.206446 8.17-2.33 2.705416-1.171775 5.149809-2.871631 7.19-5 1.79695-1.906664 3.278836-4.087298 4.39-6.46 4.64-.12 9.27 0 13.9.1 5.390433.180738 10.786116-.130551 16.12-.93 3.37-.55 7.09-1.56 9.34-4.34.779152-.903797 1.425641-1.913935 1.92-3 .4-1 .77-1.94 1.15-2.92.107373-.238209.230998-.468752.37-.69q.34-.1.69-.18c1.221427-.066812 2.446391-.023302 3.66.13.337858.025742.672615.082651 1 .17 1.23508.281432 2.52849.147873 3.68-.38l.46.17c1.330082.368084 2.751931.192337 3.952357-.48853 1.200426-.680867 2.080959-1.811002 2.447643-3.14147l.19-1.38c-.000323-.925302-.248972-1.83356-.72-2.63-1.827216-4.223519-4.5222-8.015575-7.91-11.13-3.369608-2.961065-7.281969-5.239879-11.52-6.71-4.171074-1.371828-8.498595-2.211798-12.88-2.5-2.872806-.251578-5.756455-.35838-8.64-.32v-.53q45 0 90 .23c31.26.18 62.53.33 93.79-.11 25.94-.37 51.87-1.2 77.76-2.74-2.170511 4.788748-3.930174 9.753274-5.26 14.84-.928987 3.728313-1.511463 7.534494-1.74 11.37-27.16.5-54.33-.56-81.46-1.73-14-.62-28.09-1.25-42.15-1.7-13.76-.44-27.51-.61-41.29-.61-2.78598.122144-4.981801 2.416343-4.981801 5.205s2.195821 5.082856 4.981801 5.205c13.46 0 26.91.16 40.36.57 14 .44 28.1 1.08 42.15 1.69 27.52 1.2 55.08 2.29 82.64 1.78.852649 6.727318 2.257388 13.373072 4.2 19.87 1.74 6.23 3.53 12.43 5.27 18.66-.94.15-1.87.31-2.81.45-13 1.62-26.15 1.46-39.23.75Zm86.43 56.75q-2-22.42-5.35-44.7c-2-12.87-5-25.54-7.34-38.33-.57-3.09-1.08-6.19-1.51-9.3-1.199636-8.888203-1.280264-17.891739-.24-26.8.802241-5.413373 1.998756-10.760929 3.58-16 .92-3.09 2-6.12 3.12-9.14 1.064464-2.948184 1.965827-5.952729 2.7-9 2.87-11.77 3.3-24.05 2.78-36.11-.17-4.08-.48-8.16-.83-12.24 1.83-.17 3.65-.39 5.48-.52 1.393089 8.336882 3.327175 16.574284 5.79 24.66 3.128116 10.502175 7.701947 20.518159 13.59 29.76 3.96003 6.088185 8.768486 11.580196 14.28 16.31 1.42 1.21 2.89 2.36 4.39 3.47-.168022.46376-.272307.948183-.31 1.44-.16 9.2-.44 18.39-.39 27.58.00939 9.610739.640709 19.210799 1.89 28.74.067751.395008.213962.772437.43 1.11-3.072761 1.980964-5.890531 4.331904-8.39 7-5.82 6.32-9.7 14.06-12.66 22.06-3.048823 8.685951-5.209856 17.658426-6.45 26.78-1.64 10.75-2.55 21.57-3.19 32.41-3.3.22-6.61.43-9.91.69-.43-6.63-.89-13.25-1.46-19.87Zm3.21 79c0-3.84 0-7.7-.06-11.54q-.11-11.22-.48-22.42c-.17-5-.44-9.9-.69-14.85 2.94-.23 5.89-.41 8.83-.61-.27 5.75-.51 11.5-.77 17.25-.42 9.34-.87 18.7-2.06 28-.16 1.2-.34 2.4-.55 3.59a26.99999901 26.99999901 0 0 1-.61 2.81c-.1.35-.23.7-.35 1.06h-3.27Z"/>
    <path d="M1117.3 190.600001c2.105097.002468 4.004008-1.2645 4.809928-3.209219.80592-1.944719.359835-4.183487-1.129928-5.670781-.984847-.962128-2.303251-1.506687-3.68-1.52-6.507946-.400474-13.038961-.199622-19.51.6l-1.38.19c-.870892.231896-1.664598.690865-2.3 1.33-2.029269 2.033707-2.029269 5.326293 0 7.36.959133 1.000457 2.294422 1.55199 3.68 1.52 6.471039-.799622 13.002054-1.000474 19.51-.6Zm-1036.66-42.96c-6.45.78-12.87 1.8-19.23 3.12a161.0000026 161.0000026 0 0 0-18.93 5.18c-13.12 4.4-25.71 10.2-38.66 15.07-1.292273.387417-2.398351 1.233869-3.11 2.38-1.446997 2.482895-.610309 5.668574 1.87 7.12.574413.324116 1.200145.54735 1.85.66.381787 1.146826 1.157735 2.121191 2.19 2.75 16.85 9.87 34.21 19.38 53.33 24a136.91994278 136.91994278 0 0 0 14.35 2.44c5.3.71 10.65 1.21 16 1.62 10.39.8 20.81 1.06 31.22 1.13 20.9.14 41.8-.7 62.69-.6 10.64 0 21.28.46 31.9.86q16.37.63 32.74 1.41c21.82 1 43.64 2.17 65.47 3.14q16.37.74 32.73 1.29c10.9.36 21.81.6 32.7.88 43.57 1.1 87.14 2.52 130.72 3.32 52.66 1 105.35 1 158-1.46.297559-.04648.591581-.113303.88-.2 1.130638.177361 2.287385-.056827 3.26-.66 1.34-.93 2.88-1.51 4.21-2.45 1.50892-1.172429 2.877924-2.51459 4.08-4 2.15-2.38 4.15-4.89 6.13-7.42 3.15-4 6.26-8.06 10.23-11.31 2.161362-1.570238 4.48057-2.91082 6.92-4 6.5307-2.436209 13.328746-4.084526 20.25-4.91 7.32-.94 14.74-1.47 21.79-3.8 4.119338-1.397164 8.070337-3.248566 11.78-5.52 1.11-.67 2.18-1.39 3.26-2.12l1.35-.95c1.015254-.591099 1.886294-1.400654 2.55-2.37.497012-.919917.741957-1.954893.71-3 .011849-.49437-.011544-.988955-.07-1.48-.08996-1.233128-.260322-2.459068-.51-3.67-.391975-1.765986-1.035189-3.466631-1.91-5.05-.859418-1.602364-1.981673-3.049126-3.32-4.28-2.781162-2.457873-6.110784-4.213555-9.71-5.12-3.518823-.867396-7.1112-1.403072-10.73-1.6-3.61-.33-7.23-.5-10.83-.86-1.150048-.027914-2.271731.358995-3.16 1.09-45.38-4.5-90.91 1.25-136.29 3.13-11.79.49-23.6.56-35.41.5-12-.05-23.93-.28-35.9-.59-23.92-.61-47.83-1.63-71.74-2.6-23.91-.97-47.86-1.92-71.8-2.39-23.94-.47-48-.46-72-.29-47.14.32-94.3 1.35-141.43.09-26.79-.76-53.72-1.68-80.42 1.52Zm669.27 12.82c.878552.409147 1.72147.890815 2.52 1.44.466149.406154.903846.843851 1.31 1.31.331082.489188.628438 1.000372.89 1.53.276024.779324.493298 1.578225.65 2.39-2.902345 1.966644-5.966726 3.682831-9.16 5.13-4.34665 1.668233-8.874415 2.819473-13.49 3.43-5.8.75-11.62 1.32-17.37 2.41-7 1.33-14 3.29-20.16 6.82-4.748795 2.869304-8.920241 6.599865-12.3 11-1.84 2.26-3.6 4.59-5.44 6.86-1 1.2-1.93 2.37-2.94 3.53-1.01 1.16-2.24 2.59-3.48 3.76-.87.53-1.78 1-2.66 1.5-87 4.08-174.1 1.26-261.11-1.13-21.79-.61-43.58-1-65.37-1.79-21.79-.79-43.65-1.84-65.47-2.92-21.82-1.08-43.64-2.14-65.47-2.94-10.54-.38-21.08-.68-31.62-.67-10.54.01-20.88.22-31.31.39-24.67.41-49.43.59-73.94-2.58a121.48015305 121.48015305 0 0 1-15.8-3.2 127.68990352 127.68990352 0 0 1-14.6-5.15c-5.56-2.39-11-5.08-16.3-7.93 18.23-.23 36.46-.83 54.68-1.61 2.871881 0 5.2-2.328119 5.2-5.2s-2.328119-5.2-5.2-5.2c-18.59.79-37.2 1.4-55.81 1.61 5.48-2.22 11-4.41 16.55-6.4a165.1199582 165.1199582 0 0 1 17.72-5.23c6.05-1.43 12.19-2.48 18.34-3.34 21.64-2.76 43.49-2.73 65.26-2.25 10.84.24 21.67.61 32.51.8 11.76.22 23.54.23 35.31.22 48 0 96-1.11 143.94-.65 47.94.46 95.74 3.11 143.62 4.71 23.89.8 47.81 1.36 71.71 1.13 23.52-.22 47-2.1 70.43-3.56 29.5-1.83 59.16-3 88.58.39 1.195986.039222 2.361898-.379219 3.26-1.17 3.09.22 6.17.43 9.24.8 2.481542.330441 4.921566.920336 7.28 1.76Z"/>
    <path d="M207.08 181.320001q-6.22.12-12.44.29c-2.2.06-4.4.13-6.6.17H182c-2.871881 0-5.2 2.328119-5.2 5.2s2.328119 5.2 5.2 5.2c3.59 0 7.16 0 10.75-.13 4.14-.11 8.29-.2 12.43-.3q12-.27 24-.41 24-.3 48-.13 48 .31 96 2.49c16 .73 32 1.69 48 2.44s32 1.36 48 1.84q47.83 1.43 95.71 1.26 51.48-.15 102.93-2c2.78598-.122144 4.981801-2.416343 4.981801-5.205s-2.195821-5.082856-4.981801-5.205c-63.95 2.23-128 2.66-191.93.92q-24-.66-48-1.73c-16-.7-32-1.65-48-2.43q-47.92-2.31-95.92-2.75-25.44-.26-50.89 0-13.08.16-26 .48Zm-42.42 8.54c.973385-.973323 1.520232-2.29347 1.520232-3.67 0-1.37653-.546847-2.696677-1.520232-3.67-.958552-.989173-2.282713-1.539098-3.66-1.52-11.76 1.06-23.57.85-35.37.81-2.871881 0-5.2 2.328119-5.2 5.2s2.328119 5.2 5.2 5.2c11.8 0 23.61.25 35.37-.81 1.368789-.04157 2.67326-.590445 3.66-1.54Z"/>
  </g>
</svg>