<svg xmlns="http://www.w3.org/2000/svg" viewBox="0 0 1497.81 378.55">
  <defs>
    <style>
      .cls-1{fill:#d93208}
    </style>
  </defs>
  <g id="Layer_2" data-name="Layer 2">
    <g id="Layer_1-2" data-name="Layer 1">
      <g id="Layer_2-2" data-name="Layer 2">
        <g id="_ÎÓÈ_1" data-name="ÎÓÈ 1">
          <path class="cls-1" d="M1083.24 254.09v.18ZM862.93 179.47a5.24 5.24 0 0 0-5.2-5.2H852a5.2 5.2 0 0 0 0 10.4h5.73a5.24 5.24 0 0 0 5.2-5.2Z"/>
          <path class="cls-1" d="M1105.46 377.82a12 12 0 0 0 7.22-4.95c.34-1.27.8-2.5 1.21-3.74a19.31 19.31 0 0 0 .62-2.81c.32-1.88.58-3.78.83-5.67.44-3.3.76-6.61 1-9.93.64-7.75 1-15.53 1.31-23.3l.58-13.17c2.07 0 4.13-.16 6.2-.14a5.2 5.2 0 0 0 0-10.4c-1.89 0-3.76.08-5.65.13.52-8.71 1.22-17.41 2.35-26.07 1.55-11.21 3.79-22.47 8.1-33a61 61 0 0 1 6.89-12.15 42 42 0 0 1 6.32-6.4 50.92 50.92 0 0 1 9.62-5.5 74.29 74.29 0 0 1 17.09-4.45 158.06 158.06 0 0 1 24.61-.81c8.8.26 17.58 1 26.38 1 19.33.11 38.56-2.34 57.87-2.39 1.52 3 3 6.06 4.5 9.12a4.5 4.5 0 0 0 2 1.91 5.29 5.29 0 0 0 2 6.74 5.23 5.23 0 0 0 4 .52 5.42 5.42 0 0 0 3.11-2.38 104.52 104.52 0 0 0 7.45-13 5.47 5.47 0 0 0 1.18-.4 3.72 3.72 0 0 0 1 .07q10.11-.87 20.25-1.2c6.06-.19 12.13-.11 18.18-.27 11.4-.3 22.87-.92 34.22.46a52.77 52.77 0 0 1 11.54 2.84 38.79 38.79 0 0 1 6.71 4.18c1.06.79 2.13 1.56 3.26 2.25a26.49 26.49 0 0 0 3.92 1.85c3.5 1.56 6.74 3.62 10.19 5.3a27.16 27.16 0 0 0 5.65 2.14 15.05 15.05 0 0 0 7 0 14.47 14.47 0 0 0 6-3.42 19.51 19.51 0 0 0 2.59-3 31.42 31.42 0 0 0 2.44-4c.73-1.42 1.37-2.9 2-4.38a9.61 9.61 0 0 0 .36-1.3 43.84 43.84 0 0 0 .79-5.22 35.89 35.89 0 0 0 3.41 2.32 36.9 36.9 0 0 0 6.24 2.8 46.46 46.46 0 0 0 12.9 2.4 50.42 50.42 0 0 0 13.42-1.11 37.37 37.37 0 0 0 11.82-4.7 26 26 0 0 0 8.84-9 23.22 23.22 0 0 0 2.83-11.42v-1.57c-.56-9-5.88-16.88-12.75-22.4a51.66 51.66 0 0 0-6.18-4.3 54.38 54.38 0 0 0-6.88-3.31 47.78 47.78 0 0 0-14.37-3.4 34 34 0 0 0-6.38.06 33.55 33.55 0 0 0-7.35 1.5 27.94 27.94 0 0 0-5.3 2.51c-.15-1.14-.24-2.28-.46-3.39a27.66 27.66 0 0 0-2.28-6.49 16.11 16.11 0 0 0-3.93-5.08 17.56 17.56 0 0 0-6.76-3.57 22.51 22.51 0 0 0-4-.63 21.12 21.12 0 0 0-3.73 0 34.65 34.65 0 0 0-4.76.63 10.39 10.39 0 0 0-4.4 2.29 13.42 13.42 0 0 0-3.83 6.25c-.55 1.59-.86 3.25-1.41 4.84l-.21.37-.39.2a47.55 47.55 0 0 1-10.24 2.56c-3.37.41-6.76.64-10.15.86-3.89.26-7.79.47-11.69.5-7.77.08-15.54-.37-23.29-.72-14.36-.64-28.94-.94-43 2.22a4.52 4.52 0 0 0-.62-1.66q-4.61-7-9.41-13.94a5.54 5.54 0 0 0-3.11-2.39 5.21 5.21 0 0 0-6.4 3.64.74.74 0 0 1-.06.35 6.14 6.14 0 0 0-1.53 2.33c-1.13 3.08-2.15 6.2-3.14 9.32-4.16-.15-8.33-.21-12.49-.23s-8.6 0-12.9.14c-8.31.3-16.59 1-24.87 1.74-16.92 1.42-34 2.83-51 .69a90.71 90.71 0 0 1-17.94-4.45 4.31 4.31 0 0 0-1.56-1.41A108.55 108.55 0 0 1 1142.5 148a72.28 72.28 0 0 1-11.69-11.57 96.49 96.49 0 0 1-11.38-20 166.59 166.59 0 0 1-9.59-34h.49a5.21 5.21 0 0 0 0-10.41c-.71 0-1.42.07-2.14.09v-.28c-2.8-21.31-3.2-42.83-2.68-64.35a5.07 5.07 0 0 0-2.59-4.48 6 6 0 0 0-.52-.79 5.45 5.45 0 0 0-3.68-1.52c-1.42-.1-2.84-.15-4.25-.17h-.19a5.39 5.39 0 0 0-.76-.38 5.28 5.28 0 0 0-4 .53l-1 .81a5.21 5.21 0 0 0-1.34 2.3c-7.5 18.22-7.19 38.24-5.59 57.54.36 4.36.78 8.72 1.2 13.09-1.83.3-3.65.57-5.47.94-2.78.57-4.35 3.81-3.63 6.4a5.26 5.26 0 0 0 2.31 3.15 5.42 5.42 0 0 0 4 .52c1.2-.24 2.41-.41 3.62-.62 1 11.89 1.45 23.8 0 35.69a93.24 93.24 0 0 1-3.84 16.15l-.15.43a5.16 5.16 0 0 0-1.4-.31 113.48 113.48 0 0 0-16.69.65l-1.38.19a5.06 5.06 0 0 0-2.3 1.34 5.44 5.44 0 0 0-.74 1.1 4.76 4.76 0 0 0-1.79 1.28c-62.35 4-124.87 3.46-187.31 3.09q-36-.21-71.94-.17c-3.68.5-7.37.82-11.07 1.07-2.62.17-5.25.33-7.88.41a6.09 6.09 0 0 0-.06 3c.25 1.26.46 2.53.65 3.8s.25 2.32.34 3.5a5.87 5.87 0 0 0 1 3 4.93 4.93 0 0 0-.3 1.42 5.25 5.25 0 0 0 5.21 5.21 103.12 103.12 0 0 1 14.91.48 43.47 43.47 0 0 1 9.31 2.39 29.32 29.32 0 0 1 5 2.9c.58.48 1.06 1.07 1.6 1.59H814a11.85 11.85 0 0 0-5.91 1.93 11.06 11.06 0 0 0-3.52 4.07 33.19 33.19 0 0 0-1.42 3.52c-.14.28-.29.55-.44.81l-.1.1-.27.15a29.15 29.15 0 0 1-4.8 1c-9.54 1.1-19.17-.11-28.74.35a3.41 3.41 0 0 0-.46.1 5.18 5.18 0 0 0-3.16.59 5.54 5.54 0 0 0-2.39 3.11l-.21.55a24.54 24.54 0 0 1-2.36 4.18 20.28 20.28 0 0 1-2.25 2.29 19.53 19.53 0 0 1-2.94 1.7 35 35 0 0 1-7.2 1.72c-4.61.56-9.39.82-13.74 2.54a20.62 20.62 0 0 0-7.14 4.51 22.46 22.46 0 0 0-5.09 8.67 4 4 0 0 0-.18 1.54 5.13 5.13 0 0 0-.75 2.61 5.27 5.27 0 0 0 5.2 5.2c15.52.73 31 2.59 46.39 4.22 7.74.82 15.47 1.55 23.23 2.06s15.62.71 23.43.93c31.35.88 62.7.65 94.06 1.21 13 .23 26.12.51 39.15 1.28 11.71.7 23.39 1.93 35.07 3 22.74 2.08 45.92 3.87 68.59.09a5.25 5.25 0 0 0 3.31 1.64 5.14 5.14 0 0 0 3.33 1.31q9.24 0 18.48.06 1.14 7 2.11 14l-.13-1 .15 1.13c2.26 17.08 3.8 34.24 4.86 51.43-2.57.15-5.14.32-7.71.39a5.2 5.2 0 0 0 0 10.4c2.76-.07 5.53-.25 8.29-.42q.66 13.35.94 26.71.15 7.59.19 15.18v11.59a24.15 24.15 0 0 1-.11 3.18l-.08.65a5 5 0 0 0 .71 2.62 5.18 5.18 0 0 0 7.06 1.9c2.68.05 5.36.03 8.01.01ZM1214.66 206c-6.21-.17-12.42-.61-18.63-.86-1.19 0-2.39-.08-3.58-.12 1.47-2.12 2.88-4.28 4.25-6.48 2.42-3.87 4.8-7.76 7.55-11.41a44.26 44.26 0 0 1 6.36-6.55 39.19 39.19 0 0 1 3.72 2.39c5.12 4.14 9.31 9.23 13.5 14.27 2.28 2.75 4.58 5.48 7 8.08.12.13.26.24.38.38-6.82.3-13.69.5-20.55.3Zm18.25-18.89a79.66 79.66 0 0 0-12.65-12.65c8.25-.63 16.49-1.41 24.75-2 5.43-.37 10.87-.63 16.32-.65h7.55c-.67.57-1.35 1.12-2 1.71a58.78 58.78 0 0 0-5.23 5.7c-3.41 4.15-6.44 8.59-9.69 12.85a65.76 65.76 0 0 1-7.5 8.06 164 164 0 0 1-11.55-12.98Zm-58.6-13.3a151.64 151.64 0 0 0 26.5 1.64c-7.58 7.48-12.43 17.77-18.75 26.32a64.18 64.18 0 0 1-9-9.35c-4.16-5.52-7.73-11.46-11.39-17.31-1.13-1.8-2.29-3.59-3.46-5.36a91.05 91.05 0 0 0 16.1 4.1Zm101.94 29.9c-7.09.06-14.16.38-21.24.81 1.34-1.43 2.62-2.92 3.84-4.45 3.07-3.84 5.88-7.89 8.86-11.81a60.85 60.85 0 0 1 9.26-9.72l.75-.52c-.22 8.57-1.09 17.12-1.47 25.69Zm-116.76-12.51a114.07 114.07 0 0 0 8.32 11.24c1 1.14 2.06 2.15 3.11 3.2a96.22 96.22 0 0 0-12.72 2.14 65.55 65.55 0 0 0-9.67 3.19c-1.52-12.86-1.52-25.79-1.28-38.72 4.33 6.2 8.12 12.75 12.24 18.99Zm299.38-21.54a46.22 46.22 0 0 1 10.06 2.79 47 47 0 0 1 8.82 5.12 38.36 38.36 0 0 1 5.53 5.43 29.51 29.51 0 0 1 2.87 4.84 23.11 23.11 0 0 1 1.15 4.16 23.17 23.17 0 0 1 0 4.08 19 19 0 0 1-.86 3.14 19.34 19.34 0 0 1-1.58 2.71 22.24 22.24 0 0 1-2.76 2.73 28.13 28.13 0 0 1-4.82 2.77 39.62 39.62 0 0 1-8.42 2.23 48.1 48.1 0 0 1-10.86 0 40 40 0 0 1-8.46-2.23 32.57 32.57 0 0 1-5.73-3.36c-.61-.5-1.21-1-1.79-1.56a5.56 5.56 0 0 0-2.91-1.33v-.3c.17-4.54.25-9.09.29-13.62v-6.61c0-1.55 0-3.1-.06-4.64.05-.06.12-.1.17-.15a21.62 21.62 0 0 1 2.88-2.86 22.63 22.63 0 0 1 3.52-2 27.5 27.5 0 0 1 5.2-1.38 36 36 0 0 1 7.76.08Zm-37.72-15.22a14.37 14.37 0 0 1 2.34.61 11.48 11.48 0 0 1 1.32.75 12.79 12.79 0 0 1 1 1.08 15.84 15.84 0 0 1 1.14 2 29 29 0 0 1 1.4 5.59c.41 3.49.54 7 .61 10.52.07 3.74.06 7.49 0 11.23 0 4.89-.12 9.77-.3 14.66-.16 4.21-.35 8.44-.87 12.63a16.21 16.21 0 0 1-.65 3 33.42 33.42 0 0 1-3 5.49 16.43 16.43 0 0 1-1.48 1.53 9.12 9.12 0 0 1-.79.47c-.23.07-.46.14-.7.19a6.63 6.63 0 0 1-1 0 16.48 16.48 0 0 1-2.67-.82c-2-.89-3.85-2-5.75-3-2.29-1.27-4.62-2.37-7-3.4l.12.05c-3-1.38-5.53-3.55-8.28-5.4a36.4 36.4 0 0 0-11.66-4.84 79.65 79.65 0 0 0-12.75-1.94c-4.33-.38-8.69-.46-13-.46-8.31 0-16.62.51-24.94.51-9.42 0-18.83.44-28.22 1.19.13-1.44.26-2.89.33-4.33.1-2 .14-3.93.14-5.9 0-1.82 0-3.65-.09-5.48-.16-5.33-.61-10.65-1.13-16 2.86-.69 5.74-1.28 8.66-1.7 19.87-2.42 39.85.64 59.78.16 4.68-.11 9.36-.47 14-.85a72.48 72.48 0 0 0 14.77-2.47c-.14 2-.25 3.92-.28 5.89-.17 9.2.69 18.38.71 27.57a5.21 5.21 0 0 0 10.41 0c0-12.58-1.58-25.19-.06-37.72a52.89 52.89 0 0 1 2.74-10.72h.11a26.2 26.2 0 0 1 5.04-.05Zm-126.92 12.9v.38c1.44 13.15 2.6 26.48 1.3 39.68a4.6 4.6 0 0 0-2.18 2c-.93 2-2 4-3 6-.81-1.67-1.63-3.33-2.45-5a5 5 0 0 0 .28-1.57 5.15 5.15 0 0 0-1.47-3.56c.37-10.35 1.56-20.67 1.56-31 0-1.51 0-3-.09-4.51a5.52 5.52 0 0 0-.33-1.5 5.58 5.58 0 0 0 1.51-2.39c.4-1.32.88-2.62 1.31-3.93 1.14 1.86 2.38 3.63 3.56 5.44ZM1091.88 26.22A85.88 85.88 0 0 1 1095 12.6c-.33 20.09.27 40.2 2.89 60.15-1.64.12-3.27.23-4.9.39-1.52-15.63-3.07-31.28-1.11-46.92Zm-27.8 203.42c-1.94-7.38-4.08-14.71-6.18-22a141.23 141.23 0 0 1-4.28-18.27 58 58 0 0 1-.08-14 76.46 76.46 0 0 1 5.12-17.59c1.49-3.43 3.12-6.78 4.84-10.1a112.7 112.7 0 0 1 12.73-.49c-.72 2.38-1.42 4.78-2 7.21a104.25 104.25 0 0 0-2.42 32.32c.82 10.4 3 20.64 5.07 30.84.84 4 1.61 8.08 2.39 12.13q-7.61-.06-15.19-.05Zm-53.51-1.26c-13.71-.75-27.38-2.21-41-3.44-6.47-.58-12.94-1.1-19.43-1.46-7.58-.42-15.18-.63-22.77-.84-15.68-.43-31.37-.58-47.06-.7-25.7-.2-51.42-.32-77.1-1.36-23.27-.94-46.32-4.62-69.53-6.21a13.78 13.78 0 0 1 1.47-1.49 15.83 15.83 0 0 1 2.11-1.22 30.5 30.5 0 0 1 6.46-1.52c2.56-.33 5.13-.6 7.68-1a33.18 33.18 0 0 0 8.17-2.33 22.16 22.16 0 0 0 7.19-5 24.68 24.68 0 0 0 4.39-6.46c4.64-.12 9.27 0 13.9.1a88.7 88.7 0 0 0 16.12-.93c3.37-.55 7.09-1.56 9.34-4.34a12.57 12.57 0 0 0 1.92-3c.4-1 .77-1.94 1.15-2.92a5.7 5.7 0 0 1 .37-.69q.34-.1.69-.18a20.34 20.34 0 0 1 3.66.13 5.5 5.5 0 0 1 1 .17 5.76 5.76 0 0 0 3.68-.38l.46.17a5.2 5.2 0 0 0 6.4-3.63l.19-1.38a5.17 5.17 0 0 0-.72-2.63 32.82 32.82 0 0 0-7.91-11.13 34.66 34.66 0 0 0-11.52-6.71 52.19 52.19 0 0 0-12.88-2.5 85.93 85.93 0 0 0-8.64-.32v-.53q45 0 90 .23c31.26.18 62.53.33 93.79-.11 25.94-.37 51.87-1.2 77.76-2.74a92.81 92.81 0 0 0-5.26 14.84 62.37 62.37 0 0 0-1.74 11.37c-27.16.5-54.33-.56-81.46-1.73-14-.62-28.09-1.25-42.15-1.7-13.76-.44-27.51-.61-41.29-.61a5.21 5.21 0 0 0 0 10.41c13.46 0 26.91.16 40.36.57 14 .44 28.1 1.08 42.15 1.69 27.52 1.2 55.08 2.29 82.64 1.78a123.62 123.62 0 0 0 4.2 19.87c1.74 6.23 3.53 12.43 5.27 18.66-.94.15-1.87.31-2.81.45-13 1.62-26.15 1.46-39.23.75Zm86.43 56.75q-2-22.42-5.35-44.7c-2-12.87-5-25.54-7.34-38.33-.57-3.09-1.08-6.19-1.51-9.3a107.31 107.31 0 0 1-.24-26.8 112.4 112.4 0 0 1 3.58-16c.92-3.09 2-6.12 3.12-9.14a85.41 85.41 0 0 0 2.7-9c2.87-11.77 3.3-24.05 2.78-36.11-.17-4.08-.48-8.16-.83-12.24 1.83-.17 3.65-.39 5.48-.52a194.85 194.85 0 0 0 5.79 24.66 118.16 118.16 0 0 0 13.59 29.76 76.35 76.35 0 0 0 14.28 16.31c1.42 1.21 2.89 2.36 4.39 3.47a5.45 5.45 0 0 0-.31 1.44c-.16 9.2-.44 18.39-.39 27.58a222.77 222.77 0 0 0 1.89 28.74 3 3 0 0 0 .43 1.11 44.64 44.64 0 0 0-8.39 7c-5.82 6.32-9.7 14.06-12.66 22.06a136.3 136.3 0 0 0-6.45 26.78c-1.64 10.75-2.55 21.57-3.19 32.41-3.3.22-6.61.43-9.91.69-.43-6.63-.89-13.25-1.46-19.87Zm3.21 79c0-3.84 0-7.7-.06-11.54q-.11-11.22-.48-22.42c-.17-5-.44-9.9-.69-14.85 2.94-.23 5.89-.41 8.83-.61-.27 5.75-.51 11.5-.77 17.25-.42 9.34-.87 18.7-2.06 28-.16 1.2-.34 2.4-.55 3.59a27 27 0 0 1-.61 2.81c-.1.35-.23.7-.35 1.06h-3.27Z"/>
          <path class="cls-1" d="M1117.3 190.6a5.2 5.2 0 0 0 3.68-8.88 5.34 5.34 0 0 0-3.68-1.52 106 106 0 0 0-19.51.6l-1.38.19a5.09 5.09 0 0 0-2.3 1.33 5.21 5.21 0 0 0 0 7.36 4.94 4.94 0 0 0 3.68 1.52 106 106 0 0 1 19.51-.6ZM80.64 147.64c-6.45.78-12.87 1.8-19.23 3.12a161 161 0 0 0-18.93 5.18c-13.12 4.4-25.71 10.2-38.66 15.07a5.53 5.53 0 0 0-3.11 2.38 5.21 5.21 0 0 0 1.87 7.12 5.77 5.77 0 0 0 1.85.66 5.11 5.11 0 0 0 2.19 2.75c16.85 9.87 34.21 19.38 53.33 24a136.92 136.92 0 0 0 14.35 2.44c5.3.71 10.65 1.21 16 1.62 10.39.8 20.81 1.06 31.22 1.13 20.9.14 41.8-.7 62.69-.6 10.64 0 21.28.46 31.9.86q16.37.63 32.74 1.41c21.82 1 43.64 2.17 65.47 3.14q16.37.74 32.73 1.29c10.9.36 21.81.6 32.7.88 43.57 1.1 87.14 2.52 130.72 3.32 52.66 1 105.35 1 158-1.46a6.59 6.59 0 0 0 .88-.2 4.78 4.78 0 0 0 3.26-.66c1.34-.93 2.88-1.51 4.21-2.45a24.91 24.91 0 0 0 4.08-4c2.15-2.38 4.15-4.89 6.13-7.42 3.15-4 6.26-8.06 10.23-11.31a38.43 38.43 0 0 1 6.92-4 87.63 87.63 0 0 1 20.25-4.91c7.32-.94 14.74-1.47 21.79-3.8a58.61 58.61 0 0 0 11.78-5.52c1.11-.67 2.18-1.39 3.26-2.12l1.35-.95a7.92 7.92 0 0 0 2.55-2.37 5.93 5.93 0 0 0 .71-3 10.41 10.41 0 0 0-.07-1.48 28.41 28.41 0 0 0-.51-3.67 18.92 18.92 0 0 0-1.91-5.05 16.25 16.25 0 0 0-3.32-4.28 23.23 23.23 0 0 0-9.71-5.12 58 58 0 0 0-10.73-1.6c-3.61-.33-7.23-.5-10.83-.86a4.79 4.79 0 0 0-3.16 1.09c-45.38-4.5-90.91 1.25-136.29 3.13-11.79.49-23.6.56-35.41.5-12-.05-23.93-.28-35.9-.59-23.92-.61-47.83-1.63-71.74-2.6s-47.86-1.92-71.8-2.39-48-.46-72-.29c-47.14.32-94.3 1.35-141.43.09-26.79-.76-53.72-1.68-80.42 1.52Zm669.27 12.82a17.44 17.44 0 0 1 2.52 1.44 13.5 13.5 0 0 1 1.31 1.31 13 13 0 0 1 .89 1.53 16.56 16.56 0 0 1 .65 2.39 61.82 61.82 0 0 1-9.16 5.13 59.38 59.38 0 0 1-13.49 3.43c-5.8.75-11.62 1.32-17.37 2.41-7 1.33-14 3.29-20.16 6.82a44.58 44.58 0 0 0-12.3 11c-1.84 2.26-3.6 4.59-5.44 6.86-1 1.2-1.93 2.37-2.94 3.53s-2.24 2.59-3.48 3.76c-.87.53-1.78 1-2.66 1.5-87 4.08-174.1 1.26-261.11-1.13-21.79-.61-43.58-1-65.37-1.79s-43.65-1.84-65.47-2.92-43.64-2.14-65.47-2.94c-10.54-.38-21.08-.68-31.62-.67s-20.88.22-31.31.39c-24.67.41-49.43.59-73.94-2.58a121.48 121.48 0 0 1-15.8-3.2 127.69 127.69 0 0 1-14.6-5.15c-5.56-2.39-11-5.08-16.3-7.93 18.23-.23 36.46-.83 54.68-1.61a5.2 5.2 0 1 0 0-10.4c-18.59.79-37.2 1.4-55.81 1.61 5.48-2.22 11-4.41 16.55-6.4a165.12 165.12 0 0 1 17.72-5.23c6.05-1.43 12.19-2.48 18.34-3.34 21.64-2.76 43.49-2.73 65.26-2.25 10.84.24 21.67.61 32.51.8 11.76.22 23.54.23 35.31.22 48 0 96-1.11 143.94-.65s95.74 3.11 143.62 4.71c23.89.8 47.81 1.36 71.71 1.13 23.52-.22 47-2.1 70.43-3.56 29.5-1.83 59.16-3 88.58.39a4.7 4.7 0 0 0 3.26-1.17c3.09.22 6.17.43 9.24.8a35.79 35.79 0 0 1 7.28 1.76Z"/>
          <path class="cls-1" d="M207.08 181.32q-6.22.12-12.44.29c-2.2.06-4.4.13-6.6.17H182a5.2 5.2 0 1 0 0 10.4c3.59 0 7.16 0 10.75-.13 4.14-.11 8.29-.2 12.43-.3q12-.27 24-.41 24-.3 48-.13 48 .31 96 2.49c16 .73 32 1.69 48 2.44s32 1.36 48 1.84q47.83 1.43 95.71 1.26 51.48-.15 102.93-2a5.21 5.21 0 0 0 0-10.41c-63.95 2.23-128 2.66-191.93.92q-24-.66-48-1.73c-16-.7-32-1.65-48-2.43q-47.92-2.31-95.92-2.75-25.44-.26-50.89 0-13.08.16-26 .48ZM164.66 189.86a5.19 5.19 0 0 0 0-7.34A5 5 0 0 0 161 181c-11.76 1.06-23.57.85-35.37.81a5.2 5.2 0 0 0 0 10.4c11.8 0 23.61.25 35.37-.81a5.52 5.52 0 0 0 3.66-1.54Z"/>
        </g>
      </g>
    </g>
  </g>
</svg>