<svg id="_ÎÓÈ_1" data-name="—ÎÓÈ_1" xmlns="http://www.w3.org/2000/svg" viewBox="0 0 1758.65 1441.89"><defs><style>.cls-1{fill:#282828;}.cls-2{fill:#D93208;}</style></defs><path class="cls-1" d="M1351.7,796.8a6.12,6.12,0,0,0-4.47-1.85c-6.52.56-13,.82-19.59,1-.2-6.35-.47-12.7-.6-19a6.32,6.32,0,0,0-12.64,0c.14,6.43.41,12.87.6,19.3-5.84.1-11.69.22-17.53.48a6.56,6.56,0,0,0-4.47,1.85,6.32,6.32,0,0,0,4.47,10.79c5.91-.27,11.82-.38,17.74-.48,0,5-.15,10-.54,15.07a6.14,6.14,0,0,0,1.85,4.47,6.34,6.34,0,0,0,8.94,0,6.72,6.72,0,0,0,1.85-4.47c.4-5.11.53-10.21.54-15.32,6.46-.17,12.93-.43,19.38-1a6.65,6.65,0,0,0,4.47-1.85A6.32,6.32,0,0,0,1351.7,796.8Z" transform="translate(-928.26 -695.15)"/><path class="cls-1" d="M2335.43,1445.21a6.1,6.1,0,0,0-4.47-1.86c-6.53.56-13.06.82-19.6,1-.19-6.35-.46-12.7-.6-19a6.32,6.32,0,0,0-12.64,0c.14,6.43.41,12.87.61,19.3-5.85.1-11.69.22-17.53.48a6.54,6.54,0,0,0-4.47,1.85,6.32,6.32,0,0,0,4.47,10.79c5.9-.27,11.82-.38,17.73-.48,0,5-.14,10-.54,15.07a6.18,6.18,0,0,0,1.85,4.47,6.34,6.34,0,0,0,8.94,0,6.67,6.67,0,0,0,1.85-4.47c.4-5.11.54-10.21.54-15.32,6.47-.17,12.93-.43,19.39-1a6.67,6.67,0,0,0,4.47-1.85A6.33,6.33,0,0,0,2335.43,1445.21Z" transform="translate(-928.26 -695.15)"/><path class="cls-1" d="M942.31,1045.78c-7.34,0-14.37,6.45-14,14s6.16,14,14,14c7.34,0,14.37-6.45,14-14S950.17,1045.78,942.31,1045.78Z" transform="translate(-928.26 -695.15)"/><path class="cls-1" d="M2672.87,1611.29c-7.34,0-14.37,6.46-14,14s6.17,14,14,14c7.34,0,14.37-6.46,14-14S2680.74,1611.29,2672.87,1611.29Z" transform="translate(-928.26 -695.15)"/><path class="cls-2" d="M1422.59,1062.67c4-43,13.39-80.48,28.44-117.2,16.39-40,35.24-72.55,65.57-109.43,8-9.77,16.58-19.11,25.5-28.07,19.5-19.57,46.31-40.87,68.94-55,7.73-4.81,15.7-9.19,23.75-13.43s16.4-8.13,24.76-11.83c9.5-4.21,19.15-8,28.9-11.54a257.85,257.85,0,0,1,25.31-7.83c19.24-4.9,14.36-3.43,20.59-4.77a54.69,54.69,0,0,1,7.63-1.37c10.12-2,16.86-2.89,27.82-4.34,3.93-.51,5.56-.15,4.66-.3,4.69-.45,9.39-1,14.1-1.3,3.27-.22,13-1,17-.57,5.76-.27,17.64-.86,22.94-.42a383,383,0,0,1,40.74,2.4h.1c3.53.44,3.87.47,4.78.83a371.85,371.85,0,0,1,58.19,11.93h0a10.81,10.81,0,0,1,1.47.55,298.22,298.22,0,0,1,29.67,10.18,79.59,79.59,0,0,1,7.84,3.35c6.57,2.59,13,5.35,19.4,8.4a5.79,5.79,0,0,1,2.42,1.32c4.71,2.16,5.83,2.59,6.86,3.35,17,8.15,39.38,21,55.79,32.87a473.22,473.22,0,0,0-55.45-18.21c-1.92-.87-3.86-1.72-5.79-2.56a21.92,21.92,0,0,1-4.32-1.66l-2.6-1.07c-2.11-.3-15.61-6.1-29.81-9.69-9.73-2.44-19.38-5.14-29.19-7.25-4.16-.31-22.67-5.64-57.56-7.62a13.1,13.1,0,0,1-2.58.08c-25.85-.83-34.41-1.23-60.6,1a14,14,0,0,1-3,.5c-3.58.55-7.2,1-10.78,1.57-5,.85-10,1.66-15,2.69a36.62,36.62,0,0,1-5.05,1.29c-3.82.77-13.1,2.92-24.84,6-6.39,2.58-16.55,4.07-51.32,18.37-31.13,13.52-60.27,31.36-87.27,51.9a412.1,412.1,0,0,0-69.4,69.16,370.14,370.14,0,0,0-74.1,177.37,404,404,0,0,0,.1,100.48,399.84,399.84,0,0,0,26,95,406,406,0,0,0,49.07,84.09,371,371,0,0,0,149.45,115.26,389.46,389.46,0,0,0,97.12,26.44,406.12,406.12,0,0,0,102-.19,391.88,391.88,0,0,0,94.59-26.08,395.82,395.82,0,0,0,83.1-48.61c55.31-43.29,94.71-96.15,120.23-155.78a417.59,417.59,0,0,0,16.87-49.54c12.61-45.86,17.55-102.19,10.94-152.75.07.55.15,1.11.22,1.67-.43-3.2-.83-6.4-1.24-9.6a353.72,353.72,0,0,0-11.07-49.51,320.46,320.46,0,0,0-14.32-57.76c10.65,20.87,16,34.45,22.79,53.39,6.46,18.11,11.39,38.33,15.37,57.05,1.42,6.67,2.31,13.49,3.28,20.23a393.68,393.68,0,0,1,3.64,80.37c-.63,10.5-1.81,20.92-3.3,31.33,0-.17.05-.34.07-.52-7.52,54.67-28.46,108.87-57.15,154.75a417.71,417.71,0,0,1-52.8,66.65,412.54,412.54,0,0,1-65.14,53.87c-23.45,15.73-48.62,28.49-74.76,39.1-46.92,19.08-105,30.61-163.22,28.9a403.57,403.57,0,0,1-163.32-39.6,394.36,394.36,0,0,1-70-42.54,426.28,426.28,0,0,1-61.8-56.77,415.33,415.33,0,0,1-49.5-68.78,434,434,0,0,1-24.1-50.14,380.89,380.89,0,0,1-15.8-47.11c-7.56-28.23-13.06-65.08-13.65-99.45,0-.57-.07-1.16-.07-1.75A373.69,373.69,0,0,1,1422.59,1062.67Z" transform="translate(-928.26 -695.15)"/><path class="cls-1" d="M1770.8,2127l-.37-.06Z" transform="translate(-928.26 -695.15)"/><path class="cls-1" d="M1700.71,1409.7a72,72,0,0,0,14.46,8.51,30.52,30.52,0,0,0,3.49,1.19c.11-.12.22-.22.32-.34a14.06,14.06,0,0,0,1.08-1.88,15.81,15.81,0,0,0,.71-2.68,19.56,19.56,0,0,0,0-3.67c-.08-.52-.19-1-.31-1.54-9.37-5.52-19-10.63-28.65-15.58l-.25.47a10.32,10.32,0,0,0-.42,1.54,11,11,0,0,0,0,1.62,12.76,12.76,0,0,0,.64,2.27,21.37,21.37,0,0,0,2.15,3.55A42.89,42.89,0,0,0,1700.71,1409.7Z" transform="translate(-928.26 -695.15)"/><path class="cls-1" d="M1819.8,1358.18a64.78,64.78,0,0,0,12.28,17.86c.2,0,.41,0,.61,0a11.14,11.14,0,0,0,1.82-.51,13.56,13.56,0,0,0,1.94-1.15,19.3,19.3,0,0,0,2.63-2.71,160.74,160.74,0,0,0-14.85-22.43c-1.19-1.53-2.39-3-3.6-4.56l-.06,0a11,11,0,0,0-1.28,1.27,10.13,10.13,0,0,0-.79,1.35,12.52,12.52,0,0,0-.49,1.82,15.76,15.76,0,0,0,0,3.07A29,29,0,0,0,1819.8,1358.18Z" transform="translate(-928.26 -695.15)"/><path class="cls-1" d="M1769.79,2126.83l.45.07Z" transform="translate(-928.26 -695.15)"/><path class="cls-1" d="M1642.05,1505a8,8,0,0,0,.51.9,10.57,10.57,0,0,0,1.11,1.11,16.67,16.67,0,0,0,2.45,1.43,28.3,28.3,0,0,0,5.78,1.59,40,40,0,0,0,9.34.2,24.72,24.72,0,0,0,5.24-1.19,11.46,11.46,0,0,0,1.43-.75,14.73,14.73,0,0,0,1.19-1.18c-9-1.12-18.14-1.87-27.21-2.76C1641.94,1504.61,1642,1504.83,1642.05,1505Z" transform="translate(-928.26 -695.15)"/><path class="cls-1" d="M1892.31,1589a3.81,3.81,0,1,1-3-7c1.31-.64,2.59-1.32,3.86-2,5.79-3.52,10.89-8,15.94-12.45-3.44-10.5-6.92-19.38-8.38-30.46-.83-6.35-3-34.15-5.94-56.14-1.71-12.64-3.88-25.21-6.76-37.64-1.42-2.62-2.79-5.27-4.27-7.86-1.8-3.11-3.82-6.09-5.78-9.1-10.8-16.55-21.56-33.19-33.54-49.21a19.37,19.37,0,0,1-5.27,4.58,15,15,0,0,1-9,1.9,3.69,3.69,0,0,1-1.92-.52l-.78-.59a4,4,0,0,1-.7-1,74.5,74.5,0,0,1-13.14-18.62l-.37.71a17.09,17.09,0,0,0-.83,3.16,25.57,25.57,0,0,0,.08,5.53,53.37,53.37,0,0,0,3.59,12.11c4.34,10.07,11.1,20.53,17.77,29.22.68-.42,1.37-.83,2.05-1.26a3.81,3.81,0,1,1,3.85,6.58c-1.11.7-2.24,1.38-3.37,2,4.23,15.9,14.52,28.56,21.38,45.31l1.61.26c1.6.19,3.2.32,4.81.39a3.86,3.86,0,0,1,2.69,1.12,3.8,3.8,0,0,1-2.69,6.5,65,65,0,0,1-6.53-.62,50.88,50.88,0,0,0-2,8.79c-1.39,11.27-.34,22.67.51,33.94a3,3,0,0,1-.2,1.24c2.3,3.77,5.9,9.45,8.57,13a31,31,0,0,0,3.68,3.92,3.82,3.82,0,0,1-2.7,6.51,3.94,3.94,0,0,1-2.69-1.12,47.72,47.72,0,0,1-7.48-9.15c-13.87-20.57-23.73-43-37.57-63.59a25.55,25.55,0,0,1-1.94,2.21,32.75,32.75,0,0,1-5.3,4.31,3.82,3.82,0,0,1-5.6-4.3,4,4,0,0,1,1.75-2.28c.45-.3.9-.6,1.33-.92a28.19,28.19,0,0,0,4.06-4l.49-.71c-9.47-4.7-18.36-11.28-26.91-16.29-3.27-1.92-6.43-3.52-18.11-10.27-13-7.51-25.89-15.19-39.06-22.39a20,20,0,0,1-.48,4.43,19.17,19.17,0,0,1-2.22,5.39,15,15,0,0,1-4.24,4.37,3.78,3.78,0,0,1-4-.08,4.34,4.34,0,0,1-.87-.12,40.74,40.74,0,0,1-7.11-2.77,77.67,77.67,0,0,1-13.63-8.38q.19.57.42,1.14a38.33,38.33,0,0,0,4.46,7.39c7.5,9.49,17.93,16.81,27.41,24.13,9.16,7.08,31.06,26.85,53.72,41.85a4,4,0,0,1,1.75,2.28,3.83,3.83,0,0,1,0,1.78c12.91,19.43,34.69,43.19,31.57,66.7a95,95,0,0,1,11.27,13,3.71,3.71,0,0,1,.34,2.95,3.81,3.81,0,0,1-6.38,1.59l-.59-.79c-6.06-8.53-15.21-16.49-23.37-23-10.46-8.19-24.62-18.14-36.07-24.54-3.57-2-5.77-3.11-8-4.21a53.47,53.47,0,0,0-11.48,7.9l-.39.43a4.06,4.06,0,0,1-2.48,1.45,3.82,3.82,0,0,1-4.32-3.22,3.74,3.74,0,0,1,.75-2.87,38.48,38.48,0,0,1,7.33-6.2c.37-.25.75-.48,1.13-.72-23.46-3.69-43.16-10.75-65.37-14.38-.46.71-.94,1.4-1.45,2.07a17.65,17.65,0,0,1-4.27,4.35,10.16,10.16,0,0,1-2,1.09,26.25,26.25,0,0,1-3.33,1.16,41.17,41.17,0,0,1-14.19.78c-1.17-.15-2.34-.33-3.5-.56a23.35,23.35,0,0,0,1.83,3.08,25.81,25.81,0,0,0,3.85,3.9,39.51,39.51,0,0,0,7.71,4.47c8.28,3.51,17.16,5.12,25.79,7.52,2.64.73,5.23,1.6,7.83,2.44,10.57,3.4,21,6.62,31.33,10.48a3.66,3.66,0,0,1,2.51,1.14c14.56,18.22,34,32.37,52.71,46.26,3.56,2.66,7.13,5.33,10.71,8a60.57,60.57,0,0,1,10.23,8.88,4,4,0,0,1,1.08,2.76,3.82,3.82,0,0,1-6.54,2.57,43.74,43.74,0,0,0-5.76-5.46c-2.87-2.23-5.83-4.34-8.74-6.52-10.67-8-22.75-16.72-33.76-25.9a21.08,21.08,0,0,1-2.85,1.61c-4.3,2.64-7.15,5.6-10.91,9.31a3.66,3.66,0,0,1-2.81.78,3.82,3.82,0,0,1-2.56-6.1c3.72-3.72,6.06-6.16,9.57-8.65a157.25,157.25,0,0,0-39,3.18c-.52.61-1,1.22-1.55,1.85a64.85,64.85,0,0,0-7.9,13,71,71,0,0,0-4.06,13.13,16.31,16.31,0,0,0,1.45,1.43,16.49,16.49,0,0,0,2.42,1.45,20.16,20.16,0,0,0,3.88,1.09,46.57,46.57,0,0,0,8.43.18,4.06,4.06,0,0,1-1.17-2,3.82,3.82,0,0,1,4.77-4.58c18.43,8,33.95,25.51,51.09,40.36a3.7,3.7,0,0,1,1.08,2.75,3.79,3.79,0,0,1-5.19,3.44c-.05.46-.09.91-.11,1.37a17.84,17.84,0,0,0,.46,3.16c1.31,4.06,3.47,6.69,6.74,11.5a4,4,0,0,1,.77,2.82,3.81,3.81,0,0,1-6.79,1.86c-1.6-2.37-4.19-5.88-6-9.18-3.44,11.81-7.19,23.54-11.34,35.13-4.7,13.16-5.86,15.23-7.92,21.92-3.73,12.16-6.26,25.87-4.73,38.59a44,44,0,0,0,2.56,9.84,34.94,34.94,0,0,0,4,6.73,46.49,46.49,0,0,0,7.25,7.39,23.09,23.09,0,0,0,3.65,2.25,3.69,3.69,0,0,1,1.75,2.28,3.8,3.8,0,0,1-3.77,4.81c3.79,17.39,2.46,36.86,2.88,52.91.08,3.19.24,6.37.35,9.56,1.48,44.43-1.07,88.86-.51,133.29.53,42.07,2.2,84.13,2.24,131.51q.39.24.81.45c14.36,6.25,65.17,10.95,80.66,12.61,16.32,1.74,38.59,5.42,54.66,1.24-.82-6.42-.44-4.47-1.66-13.52-.1-.43-4.39-32.84-7-53.6-4.44-35.55-9-75.66-12-111.49-5.52-65.41-7.95-132.57-17.48-196.91a3.88,3.88,0,0,1,0-2c.1-.22.19-.44.28-.66a4,4,0,0,1,.47-1.55c.55-1,1-2,1.51-3.1a102.67,102.67,0,0,0,3.4-10.54c7.48-26.62,11.82-55.35,22.25-81.17,2.76-6.82,4-9.22,6-13.56,9.68-21.2,17.42-42.86,26.47-65.41A70.45,70.45,0,0,1,1892.31,1589Zm-118.83,207.63c-5.55-.29-10.33,1.48-16.62-.08a3.81,3.81,0,0,1,1.89-7.38c.57.14,1.13.25,1.7.34,4.33.34,8.63-.72,13-.5a3.9,3.9,0,0,1,2.74,1.13,3.8,3.8,0,0,1-2.67,6.49ZM1865.34,1634a24.54,24.54,0,0,1-10.07,11.34,39.39,39.39,0,0,1-7.1,3.51,41.86,41.86,0,0,1-7.31,1.93,3.81,3.81,0,0,1-1.1-7.55c1.15-.18,2.28-.43,3.4-.72a36.55,36.55,0,0,0,7.34-3.14,28.43,28.43,0,0,0,4.56-3.47,20.55,20.55,0,0,0,2.44-3.13,17.39,17.39,0,0,0,.8-1.69,3.81,3.81,0,1,1,7,2.92Z" transform="translate(-928.26 -695.15)"/><path class="cls-1" d="M1770.43,2126.93l-.19,0Z" transform="translate(-928.26 -695.15)"/></svg>