<svg xmlns="http://www.w3.org/2000/svg" viewBox="0 0 377.56 39.37"><defs><style>.cls-1{fill:#D93208;}</style></defs><g id="Layer_2" data-name="Layer 2"><g id="_ÎÓÈ_1" data-name="—ÎÓÈ_1"><path class="cls-1" d="M39.53,5.43c-3.17.43-6.33,1-9.46,1.68a81.53,81.53,0,0,0-9.29,2.71C14.35,12.1,8.19,15.06,1.84,17.56a2.73,2.73,0,0,0-1.51,1.2,2.56,2.56,0,0,0,1,3.49,2.78,2.78,0,0,0,.92.31,2.6,2.6,0,0,0,1.1,1.35c8.39,4.73,17,9.28,26.49,11.41a68.2,68.2,0,0,0,7.09,1.09c2.63.31,5.27.51,7.9.67,5.13.31,10.27.36,15.41.31,10.3-.1,20.6-.68,30.9-.8,5.25-.06,10.49.06,15.74.17s10.77.27,16.15.44c10.77.33,21.54.72,32.31,1q8.07.24,16.15.38c5.37.09,10.75.12,16.13.17,21.49.2,43,.55,64.47.59,26,.06,52-.34,77.88-2a3.13,3.13,0,0,0,.44-.1,2.34,2.34,0,0,0,1.6-.35c.65-.47,1.4-.77,2-1.24a12,12,0,0,0,2-2c1.05-1.19,2-2.44,3-3.7a33.83,33.83,0,0,1,4.95-5.66,19,19,0,0,1,3.38-2,43.75,43.75,0,0,1,9.95-2.58c3.6-.52,7.25-.84,10.71-2a28.94,28.94,0,0,0,5.78-2.83c.54-.34,1.06-.7,1.59-1.07l.66-.48a4,4,0,0,0,1.24-1.19,2.83,2.83,0,0,0,.32-1.5c0-.24,0-.49,0-.73a15.83,15.83,0,0,0-.28-1.81,9.55,9.55,0,0,0-1-2.47,7.81,7.81,0,0,0-1.67-2.08,11.43,11.43,0,0,0-4.83-2.45,27.86,27.86,0,0,0-5.3-.75C362.69.2,360.9.15,359.12,0a2.3,2.3,0,0,0-1.55.56C335.16-1.29,312.76,1.91,290.4,3.2c-5.81.33-11.64.46-17.46.53s-11.8,0-17.7,0c-11.8-.11-23.6-.42-35.4-.71s-23.61-.56-35.42-.61-23.67.16-35.5.43C125.68,3.37,102.43,4.25,79.19,4,66,3.87,52.67,3.63,39.53,5.43Zm330.09,1a8.55,8.55,0,0,1,1.26.69,6.6,6.6,0,0,1,.66.63,8.27,8.27,0,0,1,.45.75,9.24,9.24,0,0,1,.34,1.17,29.36,29.36,0,0,1-4.48,2.6,29.09,29.09,0,0,1-6.62,1.8c-2.86.42-5.72.75-8.55,1.33a32.08,32.08,0,0,0-9.88,3.53,22.16,22.16,0,0,0-6,5.52c-.89,1.13-1.74,2.29-2.63,3.42-.46.6-.93,1.18-1.42,1.76a25.18,25.18,0,0,1-1.68,1.89c-.43.27-.87.5-1.3.76C286.92,35,244,34.27,201,33.78c-10.74-.12-21.49-.16-32.24-.36s-21.54-.56-32.3-.91-21.54-.71-32.31-.93c-5.2-.1-10.4-.17-15.6-.08s-10.29.28-15.43.44c-12.16.4-24.37.69-36.48-.68a61.14,61.14,0,0,1-7.82-1.45,63.23,63.23,0,0,1-7.23-2.42c-2.76-1.14-5.46-2.42-8.11-3.79,9-.25,18-.69,27-1.22A2.6,2.6,0,0,0,43,19.77a2.57,2.57,0,0,0-2.6-2.52c-9.16.54-18.33,1-27.51,1.24,2.69-1.14,5.38-2.27,8.11-3.29a82.67,82.67,0,0,1,8.7-2.72c3-.75,6-1.32,9-1.79C49.34,9.15,60.11,9,70.86,9.06c5.34,0,10.68.12,16,.13,5.8,0,11.61-.08,17.41-.17,23.66-.39,47.31-1.32,71-1.47s47.23.77,70.85,1.18c11.78.2,23.58.28,35.37,0,11.59-.3,23.14-1.41,34.69-2.32,14.53-1.13,29.15-1.94,43.68-.51a2.3,2.3,0,0,0,1.6-.6c1.52.08,3.05.16,4.56.32A17.55,17.55,0,0,1,369.62,6.41Z"/><path class="cls-1" d="M102.14,21,96,21.26l-3.25.14c-1,0-2,0-3,.05a2.57,2.57,0,0,0,.08,5.13c1.77,0,3.54-.07,5.3-.15l6.13-.24c3.94-.16,7.87-.28,11.81-.4q11.84-.33,23.66-.45,23.67-.22,47.33.47c7.9.23,15.79.58,23.69.82s15.79.41,23.69.52q23.6.33,47.19-.14,25.38-.48,50.74-1.8a2.57,2.57,0,0,0-.08-5.13c-31.52,1.61-63.08,2.33-94.63,2q-11.84-.14-23.67-.46c-7.9-.22-15.8-.56-23.71-.82Q163.66,20,140,20.19q-12.56.07-25.09.42Q108.53,20.79,102.14,21Z"/><path class="cls-1" d="M81.3,25.57A2.59,2.59,0,0,0,82,23.74a2.56,2.56,0,0,0-.78-1.8,2.49,2.49,0,0,0-1.83-.72c-5.79.62-11.61.61-17.43.68A2.57,2.57,0,1,0,62.07,27C67.88,27,73.71,27,79.5,26.35A2.77,2.77,0,0,0,81.3,25.57Z"/></g></g></svg>