<svg xmlns="http://www.w3.org/2000/svg" viewBox="0 0 382.87 186.62"><defs><style>.cls-1{fill:#D93208;}</style></defs><g id="Layer_2" data-name="Layer 2"><g id="_ÎÓÈ_1" data-name="—ÎÓÈ_1"><path class="cls-1" d="M178.94,125.33v.09h0A.28.28,0,0,0,178.94,125.33Z"/><path class="cls-1" d="M69.72,90.3a2.59,2.59,0,0,0-2.6-2.53l-2.83,0a2.57,2.57,0,0,0,.08,5.13l2.83,0A2.58,2.58,0,0,0,69.72,90.3Z"/><path class="cls-1" d="M190.88,186.16a2.51,2.51,0,0,0,1.67-.7,2.57,2.57,0,0,0,1.86-1.8c.15-.62.37-1.23.56-1.85a9.25,9.25,0,0,0,.28-1.39c.15-.93.26-1.87.37-2.8.19-1.63.32-3.26.43-4.9.26-3.83.36-7.67.46-11.5q.09-3.25.19-6.5c1-.05,2-.11,3.05-.12a2.57,2.57,0,0,0-.08-5.13c-.93,0-1.86.07-2.79.11.19-4.3.46-8.59,1-12.87a67.21,67.21,0,0,1,3.73-16.33,30.85,30.85,0,0,1,3.3-6,21.18,21.18,0,0,1,3.07-3.21,25.5,25.5,0,0,1,4.7-2.78A35.93,35.93,0,0,1,221,106a78.07,78.07,0,0,1,12.13-.6c4.34.06,8.67.35,13,.3,9.53-.1,19-1.46,28.52-1.64.77,1.48,1.54,3,2.29,4.46a2.29,2.29,0,0,0,1,.93A2.57,2.57,0,0,0,281,113a2.67,2.67,0,0,0,1.51-1.21,51.43,51.43,0,0,0,3.57-6.46,2.52,2.52,0,0,0,.58-.21,1.75,1.75,0,0,0,.51,0q5-.51,10-.75c3-.15,6-.16,9-.29,5.62-.23,11.27-.63,16.88,0a26,26,0,0,1,5.71,1.31,19.61,19.61,0,0,1,3.34,2c.53.38,1.06.75,1.62,1.08a14.2,14.2,0,0,0,1.95.88c1.74.74,3.36,1.73,5.07,2.53a13.19,13.19,0,0,0,2.8,1,7.41,7.41,0,0,0,3.44-.06,7.15,7.15,0,0,0,2.91-1.73,9.46,9.46,0,0,0,1.25-1.51,14.1,14.1,0,0,0,1.17-2,21.78,21.78,0,0,0,.93-2.17,3.79,3.79,0,0,0,.17-.64,20.75,20.75,0,0,0,.35-2.58,18.87,18.87,0,0,0,1.7,1.09,17.6,17.6,0,0,0,3.07,1.31,23.08,23.08,0,0,0,6.39,1.09,25.26,25.26,0,0,0,6.6-.66,18.19,18.19,0,0,0,5.79-2.41,12.67,12.67,0,0,0,4.29-4.53,11.48,11.48,0,0,0,1.32-5.63q0-.39,0-.78c-.35-4.42-3-8.27-6.47-10.94a25.5,25.5,0,0,0-3.08-2.07,27.91,27.91,0,0,0-3.42-1.58,23.77,23.77,0,0,0-7.11-1.56,17.46,17.46,0,0,0-3.15.08,16,16,0,0,0-3.61.8,13.86,13.86,0,0,0-2.59,1.28c-.09-.56-.14-1.12-.26-1.67A13.32,13.32,0,0,0,352,72.85a7.91,7.91,0,0,0-2-2.47,8.58,8.58,0,0,0-3.36-1.71,12.1,12.1,0,0,0-2-.28,11.29,11.29,0,0,0-1.84,0,16.5,16.5,0,0,0-2.34.35,5.19,5.19,0,0,0-2.16,1.17A6.58,6.58,0,0,0,336.5,73c-.26.79-.4,1.62-.66,2.41l-.1.18-.19.1a23.64,23.64,0,0,1-5,1.34c-1.66.23-3.33.37-5,.51-1.92.16-3.84.29-5.76.34-3.83.1-7.66-.06-11.49-.17-7.08-.2-14.28-.23-21.19,1.44a2.18,2.18,0,0,0-.32-.81c-1.55-2.29-3.14-4.56-4.75-6.8a2.77,2.77,0,0,0-1.55-1.16,2.64,2.64,0,0,0-2,.29,2.6,2.6,0,0,0-1.15,1.56.86.86,0,0,0,0,.17,3.25,3.25,0,0,0-.74,1.16c-.53,1.53-1,3.07-1.47,4.62-2,0-4.11,0-6.16,0s-4.24.06-6.36.17c-4.09.21-8.17.65-12.25,1.06-8.33.83-16.76,1.66-25.12.74a45.05,45.05,0,0,1-8.88-2,2.06,2.06,0,0,0-.78-.68,54.9,54.9,0,0,1-8.23-4.86A35.71,35.71,0,0,1,201.47,67a47.6,47.6,0,0,1-5.77-9.75,81.62,81.62,0,0,1-5-16.69h.24a2.57,2.57,0,0,0-.08-5.13l-1.06.06a.68.68,0,0,0,0-.14A206.36,206.36,0,0,1,188,3.58a2.53,2.53,0,0,0-1.32-2.17,2.65,2.65,0,0,0-.26-.39A2.73,2.73,0,0,0,184.55.3c-.7,0-1.4,0-2.1,0h-.09A2.53,2.53,0,0,0,182,.08a2.59,2.59,0,0,0-2,.29l-.51.41a2.69,2.69,0,0,0-.64,1.14c-3.55,9.05-3.24,18.92-2.3,28.42.21,2.14.46,4.29.7,6.44-.9.16-1.8.32-2.69.51A2.57,2.57,0,0,0,174,42a2.68,2.68,0,0,0,2,.23c.59-.13,1.19-.23,1.78-.34a84.18,84.18,0,0,1,.26,17.6,46.05,46.05,0,0,1-1.74,8l-.08.21a3.13,3.13,0,0,0-.69-.14,55.12,55.12,0,0,0-8.22.46l-.68.1a2.44,2.44,0,0,0-1.12.68,2.48,2.48,0,0,0-.36.55,2.29,2.29,0,0,0-.87.64C133.57,72.4,102.75,72.66,72,73q-17.73.19-35.47.49c-1.81.28-3.63.46-5.45.62-1.29.1-2.58.2-3.88.26a3.13,3.13,0,0,0,0,1.46c.14.62.25,1.24.36,1.87s.14,1.14.19,1.72a2.89,2.89,0,0,0,.51,1.48,2.34,2.34,0,0,0-.13.7,2.58,2.58,0,0,0,2.61,2.53,51.54,51.54,0,0,1,7.35.12,21.36,21.36,0,0,1,4.61,1.1,14.89,14.89,0,0,1,2.5,1.39c.29.23.53.52.8.77-.14,0-.28,0-.41,0a5.81,5.81,0,0,0-2.91,1,5.48,5.48,0,0,0-1.7,2,18.54,18.54,0,0,0-.67,1.75l-.21.4,0,0-.13.08a15.59,15.59,0,0,1-2.36.56c-4.69.61-9.45.09-14.17.4a1.42,1.42,0,0,0-.22,0,2.64,2.64,0,0,0-1.56.31A2.79,2.79,0,0,0,20.4,95.7l-.1.27a12,12,0,0,1-1.13,2.08,9.84,9.84,0,0,1-1.09,1.15,10,10,0,0,1-1.44.86,16.48,16.48,0,0,1-3.53.9,27.61,27.61,0,0,0-6.76,1.37,10.06,10.06,0,0,0-3.48,2.28,11.07,11.07,0,0,0-2.44,4.31,1.94,1.94,0,0,0-.08.76,2.54,2.54,0,0,0,2.26,3.82c7.65.23,15.28,1,22.91,1.71,3.81.34,7.63.64,11.46.83s7.71.23,11.57.27c15.46.18,30.92-.18,46.38-.15,6.44,0,12.88,0,19.32.32,5.78.25,11.54.76,17.31,1.19,11.23.85,22.67,1.55,33.82-.5A2.59,2.59,0,0,0,167,118a2.5,2.5,0,0,0,1.65.62q4.55-.07,9.11-.12c.41,2.29.8,4.58,1.15,6.88,0-.15-.05-.31-.07-.46,0,.18.06.37.08.55a.51.51,0,0,1,0,.13l0-.13c1.26,8.41,2.15,16.85,2.81,25.32-1.27.1-2.53.2-3.8.26a2.57,2.57,0,0,0,.08,5.13c1.37-.06,2.73-.17,4.09-.28q.44,6.59.67,13.16c.1,2.5.17,5,.22,7.49,0,1.16,0,2.33.07,3.49,0,.58,0,1.16,0,1.74,0,.16,0,.32,0,.48a11.73,11.73,0,0,1,0,1.57c0,.1,0,.21,0,.32a2.57,2.57,0,0,0,3.9,2.15Zm52.48-85.58c-3.07,0-6.13-.21-9.19-.28l-1.77,0c.71-1.06,1.38-2.14,2-3.23,1.16-1.93,2.31-3.87,3.63-5.69a21.79,21.79,0,0,1,3.09-3.28c.63.36,1.26.73,1.85,1.15a48.74,48.74,0,0,1,6.77,6.93c1.15,1.34,2.3,2.67,3.53,3.93l.19.18C250.13,100.48,246.74,100.62,243.36,100.58Zm8.84-9.45A39.45,39.45,0,0,0,245.87,85c4.06-.38,8.12-.83,12.18-1.17,2.68-.23,5.36-.4,8-.46l3.73-.05c-.33.28-.66.56-1,.86A29.77,29.77,0,0,0,266.32,87c-1.65,2.07-3.11,4.28-4.68,6.41a32.4,32.4,0,0,1-3.63,4A83.28,83.28,0,0,1,252.2,91.13Zm-29-6.08a75,75,0,0,0,13.06.59c-3.68,3.75-6,8.86-9,13.13a31.73,31.73,0,0,1-4.51-4.54c-2.09-2.69-3.9-5.59-5.75-8.44-.57-.88-1.16-1.76-1.75-2.62A45.28,45.28,0,0,0,223.21,85.05ZM273.71,99c-3.5.09-7,.3-10.47.57.65-.71,1.27-1.46,1.86-2.22,1.48-1.92,2.83-3.94,4.27-5.89a29.63,29.63,0,0,1,4.49-4.87l.37-.27C274.19,90.52,273.82,94.74,273.71,99ZM216,93.74a55.49,55.49,0,0,0,4.2,5.47c.49.55,1,1,1.56,1.55a49.43,49.43,0,0,0-6.25,1.16,31.65,31.65,0,0,0-4.74,1.65,139.76,139.76,0,0,1-.94-19.08C212,87.49,214,90.67,216,93.74Zm147.44-13a22.55,22.55,0,0,1,5,1.3,23,23,0,0,1,4.39,2.45,18.7,18.7,0,0,1,2.77,2.64,13.59,13.59,0,0,1,1.45,2.36,11.14,11.14,0,0,1,.61,2,11.25,11.25,0,0,1,0,2,9.15,9.15,0,0,1-.4,1.56,9,9,0,0,1-.76,1.35,10.68,10.68,0,0,1-1.33,1.36,14.43,14.43,0,0,1-2.36,1.41,19.67,19.67,0,0,1-4.13,1.17,24,24,0,0,1-5.36.09,20.2,20.2,0,0,1-4.19-1,16.32,16.32,0,0,1-2.84-1.63c-.3-.24-.6-.49-.89-.75a2.7,2.7,0,0,0-1.45-.63c0-.05,0-.1,0-.15.05-2.24.05-4.48,0-6.72,0-1.09,0-2.17,0-3.26,0-.76,0-1.52-.07-2.29l.09-.07a10.08,10.08,0,0,1,1.35-1.42,11.08,11.08,0,0,1,1.72-1,13.45,13.45,0,0,1,2.55-.72A18.16,18.16,0,0,1,363.48,80.73Zm-18.72-7.21a7.87,7.87,0,0,1,1.16.29,5.71,5.71,0,0,1,.64.35c.19.17.37.35.54.53a7.42,7.42,0,0,1,.58,1,14.38,14.38,0,0,1,.73,2.74,50.15,50.15,0,0,1,.39,5.18c.06,1.85.09,3.7.11,5.54,0,2.41,0,4.82,0,7.23-.05,2.08-.11,4.17-.33,6.24a7.38,7.38,0,0,1-.3,1.47,16.44,16.44,0,0,1-1.46,2.75,8.74,8.74,0,0,1-.72.77l-.39.24a3.37,3.37,0,0,1-.34.09h-.48a8.65,8.65,0,0,1-1.32-.38c-1-.43-1.92-.94-2.86-1.44a35.54,35.54,0,0,0-3.49-1.62l.06,0a30,30,0,0,1-4.12-2.6,18,18,0,0,0-5.79-2.29,38.17,38.17,0,0,0-6.3-.85c-2.14-.16-4.29-.16-6.43-.13-4.1.07-8.19.38-12.3.45-4.64.08-9.28.37-13.9.81,0-.71.1-1.42.13-2.14,0-1,0-1.93,0-2.9s-.05-1.8-.09-2.7c-.12-2.63-.39-5.25-.69-7.87,1.41-.36,2.83-.68,4.26-.91,9.78-1.35,19.65,0,29.48-.39,2.3-.1,4.61-.31,6.91-.54a35,35,0,0,0,7.26-1.33c-.05,1-.09,1.93-.09,2.9,0,4.54.49,9.06.57,13.59a2.57,2.57,0,1,0,5.13-.08c-.11-6.2-1-12.41-.33-18.6a26.75,26.75,0,0,1,1.27-5.3l.05,0A13.61,13.61,0,0,1,344.76,73.52ZM282.28,80.9a1.08,1.08,0,0,0,0,.18c.81,6.48,1.49,13,1,19.56a2.33,2.33,0,0,0-1.06,1c-.44,1-.94,2-1.45,3-.41-.81-.83-1.62-1.25-2.43a2.38,2.38,0,0,0-.63-2.52c.1-5.11.6-10.2.52-15.31,0-.74,0-1.48-.08-2.22a2.66,2.66,0,0,0-.17-.74,2.64,2.64,0,0,0,.72-1.19c.19-.65.42-1.29.62-1.94C281.06,79.15,281.68,80,282.28,80.9Zm-100.9-68a42.76,42.76,0,0,1,1.44-6.74,202.45,202.45,0,0,0,1.9,29.63c-.8.08-1.61.14-2.41.24C181.43,28.34,180.54,20.64,181.38,12.91ZM169.3,113.43c-1-3.62-2.13-7.22-3.22-10.82a69.26,69.26,0,0,1-2.26-9,28.88,28.88,0,0,1-.15-6.89A37.71,37.71,0,0,1,166.06,78c.7-1.7,1.48-3.37,2.3-5a54.77,54.77,0,0,1,6.27-.35c-.34,1.18-.66,2.37-.92,3.57a51.31,51.31,0,0,0-1,16,122,122,0,0,0,2.74,15.16c.44,2,.86,4,1.28,6Zm-26.39-.19c-6.77-.26-13.52-.87-20.27-1.37-3.2-.24-6.39-.44-9.59-.57-3.74-.14-7.49-.19-11.24-.23-7.73-.09-15.47,0-23.21,0-12.67.11-25.35.25-38-.06-11.49-.27-22.88-1.9-34.34-2.5a7.31,7.31,0,0,1,.72-.75,8.27,8.27,0,0,1,1-.62,15.67,15.67,0,0,1,3.17-.8c1.26-.18,2.53-.33,3.78-.54a16.59,16.59,0,0,0,4-1.22,11,11,0,0,0,3.5-2.51,12.12,12.12,0,0,0,2.12-3.23c2.28-.09,4.57-.06,6.85-.05a44.89,44.89,0,0,0,7.94-.59A7.25,7.25,0,0,0,43.94,96a6,6,0,0,0,.91-1.52c.2-.48.37-1,.55-1.44a2.31,2.31,0,0,1,.18-.35,1.89,1.89,0,0,1,.34-.09,9.84,9.84,0,0,1,1.8,0l.5.08A2.84,2.84,0,0,0,50,92.5l.23.08a2.56,2.56,0,0,0,3.12-1.84c0-.23,0-.45.08-.68a2.54,2.54,0,0,0-.37-1.29,16.21,16.21,0,0,0-4-5.43,17.21,17.21,0,0,0-5.72-3.18A25.93,25.93,0,0,0,37,79c-1.41-.11-2.83-.11-4.26-.08l0-.27q22.2-.34,44.38-.6c15.42-.16,30.84-.33,46.25-.8,12.79-.39,25.57-1,38.32-2a46.84,46.84,0,0,0-2.48,7.36,30.39,30.39,0,0,0-.76,5.62c-13.39.46-26.79.16-40.18-.21-6.93-.19-13.86-.39-20.8-.5-6.78-.11-13.57-.08-20.36,0a2.57,2.57,0,0,0,.08,5.13q10-.17,19.91,0c6.93.11,13.86.31,20.79.5,13.58.37,27.18.69,40.76.22a61.58,61.58,0,0,0,2.23,9.76c.91,3.06,1.84,6.1,2.75,9.16-.46.08-.92.17-1.38.24A108.67,108.67,0,0,1,142.91,113.24ZM186,140.53q-1.12-11-3-22c-1.08-6.33-2.65-12.55-3.92-18.84-.31-1.52-.59-3-.83-4.57a53.6,53.6,0,0,1-.33-13.21,55.66,55.66,0,0,1,1.64-7.9c.43-1.53.94-3,1.46-4.53A40.82,40.82,0,0,0,182.29,65a63.79,63.79,0,0,0,1.08-17.82c-.12-2-.3-4-.51-6,.9-.09,1.8-.22,2.7-.29A95.79,95.79,0,0,0,188.61,53a58.64,58.64,0,0,0,6.93,14.56,37.55,37.55,0,0,0,7.17,7.93c.71.58,1.45,1.14,2.19,1.68a2.79,2.79,0,0,0-.14.71c0,4.54-.07,9.07,0,13.6A109.75,109.75,0,0,0,206,105.59a1.51,1.51,0,0,0,.22.55,21.74,21.74,0,0,0-4.08,3.51,32.5,32.5,0,0,0-6.07,11,67.53,67.53,0,0,0-3,13.25c-.73,5.32-1.09,10.66-1.31,16l-4.89.42C186.61,147.05,186.33,143.79,186,140.53Zm2.22,38.94c0-1.9-.07-3.79-.12-5.69q-.15-5.53-.42-11.05c-.12-2.44-.3-4.88-.46-7.31,1.45-.14,2.9-.26,4.35-.38-.09,2.84-.16,5.68-.24,8.51-.13,4.61-.28,9.23-.79,13.82-.07.59-.16,1.18-.25,1.77a11,11,0,0,1-.28,1.39,4.48,4.48,0,0,1-.16.52l-1.61,0C188.22,180.55,188.22,180,188.21,179.47Z"/><path class="cls-1" d="M195.23,93.76a2.58,2.58,0,0,0,2.53-2.61,2.63,2.63,0,0,0-.78-1.8,2.7,2.7,0,0,0-1.83-.72,52.48,52.48,0,0,0-9.62.45l-.68.1A2.57,2.57,0,0,0,183,91.69a2.55,2.55,0,0,0,.78,1.8,2.44,2.44,0,0,0,1.83.72A52.33,52.33,0,0,1,195.23,93.76Z"/></g></g></svg>